<svg width="83" height="32" viewBox="0 0 83 32" fill="none" xmlns="http://www.w3.org/2000/svg">
<path d="M8.72127 4C10.3839 4 10.8899 5.15663 11.3237 6.31325C11.5405 6.81928 15.7333 18.4578 15.8779 18.747C15.8779 18.8193 15.8779 19.0361 15.7333 19.0361C15.5887 19.1084 13.3478 19.9759 13.2755 19.9759C13.1309 20.0482 12.9863 19.9759 12.9863 19.8313C12.9863 19.6867 11.9743 17.3012 11.8297 17.012C11.5405 17.012 5.8297 17.012 5.54054 17.012C5.46826 17.3012 4.5285 19.8313 4.45621 19.9759C4.38392 20.1205 4.31163 20.1928 4.16705 20.1205C4.02247 20.0482 1.8538 19.1807 1.70922 19.1084C1.56464 19.0361 1.49235 18.8916 1.56464 18.8193C1.70922 18.3855 5.90199 6.96386 6.11886 6.31325C6.55259 5.15663 7.05862 4 8.72127 4ZM1.2032 24.8193C1.05862 24.8193 0.986328 24.9639 0.986328 25.0361V27.7831C0.986328 27.9277 1.05862 28 1.2032 28H16.1671C16.3116 28 16.3839 27.8554 16.3839 27.7831V25.0361C16.3839 24.8916 16.3116 24.8193 16.1671 24.8193H1.2032ZM8.64898 7.83133L6.55259 14.1928H10.8177L8.64898 7.83133ZM64.2393 17.1566C64.2393 17.8795 63.8056 18.3855 63.0827 18.3855C62.7936 18.3855 62.5767 18.3855 62.143 18.3133V16.1446C62.2875 16.1446 62.649 16.0723 63.0827 16.0723C63.8056 16 64.2393 16.3614 64.2393 17.1566ZM65.7574 17.0843C65.7574 15.7108 64.9622 14.8434 63.2996 14.8434C62.8658 14.8434 62.5767 14.9157 62.143 14.988V13.0361C62.4321 12.9639 62.8658 12.9639 63.3719 12.9639C63.8779 12.9639 64.4562 12.9639 65.0345 13.0361L65.1068 11.9518C64.5285 11.8072 63.5887 11.7349 62.9381 11.7349C62.2875 11.7349 61.2032 11.8795 60.6972 12.0241V19.1807C61.4924 19.4699 62.2152 19.6145 63.0104 19.6145C64.8177 19.5422 65.7574 18.6024 65.7574 17.0843ZM48.5526 16.6506C48.5526 17.6627 48.1912 18.3133 47.4683 18.3133C47.1791 18.3133 47.0345 18.3133 46.7454 18.1687V15.2048C47.1068 15.0602 47.2514 15.0602 47.5405 15.0602C48.2634 15.0602 48.5526 15.5663 48.5526 16.6506ZM43.6369 16.7229C43.6369 15.6386 43.9984 15.0602 44.649 15.0602C44.9381 15.0602 45.0827 15.0602 45.4442 15.2048V18.1687C45.155 18.241 45.0104 18.3133 44.7213 18.3133C43.9261 18.3133 43.6369 17.6627 43.6369 16.7229ZM46.8177 21.2048V19.253C46.9622 19.3253 47.3237 19.5422 47.9743 19.5422C49.2032 19.5422 50.0707 18.5301 50.0707 16.7229C50.0707 14.7711 49.2032 13.9036 47.7574 13.9036C47.396 13.9036 47.1791 13.9759 46.8177 14.0482V11.7349H45.3719V14.0482C45.0827 13.9036 44.8658 13.9036 44.4321 13.9036C42.9863 13.9036 42.1189 14.7711 42.1189 16.7229C42.1189 18.5301 42.914 19.5422 44.2152 19.5422C44.7936 19.5422 45.155 19.3976 45.3719 19.253V21.2048H46.8177ZM36.0466 19.3976V14.1928C35.2514 13.9759 34.6731 13.8313 33.8779 13.8313C33.0827 13.8313 32.5044 13.9036 31.7092 14.1928V16.8675C31.7092 17.5904 31.7092 17.8072 31.6369 18.0241C31.5646 18.241 31.4201 18.4578 31.1309 18.6747L31.4924 19.5422C32.649 19.253 33.0827 18.747 33.0827 17.1566V15.2048C33.4442 15.1325 33.5164 15.1325 33.8056 15.1325C34.0948 15.1325 34.1671 15.1325 34.5285 15.2048V19.4699H36.0466V19.3976ZM53.5405 18.241C53.2514 18.3133 53.0345 18.3855 52.7454 18.3855C52.2393 18.3855 51.9502 18.1687 51.9502 17.6627C51.9502 17.0843 52.3116 16.9398 53.0345 16.9398C53.1791 16.9398 53.396 16.9398 53.4683 17.012V17.3735C53.4683 17.8072 53.5405 18.0964 53.5405 18.241ZM55.3478 18.8916C54.9863 18.3133 54.8418 17.9518 54.8418 17.3012V15.8554C54.8418 15.0602 54.7695 14.7711 54.5526 14.4819C54.2634 14.0482 53.7574 13.9036 52.8899 13.9036C52.2393 13.9036 51.661 13.9759 51.0827 14.1205L51.2996 15.1325C51.7333 15.0602 52.0948 15.0602 52.3839 15.0602C53.3237 15.0602 53.4683 15.2048 53.4683 15.9277V16.2169C53.2514 16.1446 53.0345 16.1446 52.7454 16.1446C51.2996 16.1446 50.5767 16.8675 50.5767 17.9518C50.5767 19.0361 51.3719 19.6145 52.3839 19.6145C52.7454 19.6145 53.1068 19.5422 53.396 19.3976C53.6128 19.3253 53.6851 19.253 53.902 19.1084C54.0466 19.3253 54.3357 19.5422 54.408 19.5422L55.3478 18.8916ZM69.2273 18.241C68.9381 18.3133 68.7213 18.3855 68.4321 18.3855C67.9261 18.3855 67.6369 18.1687 67.6369 17.6627C67.6369 17.0843 67.9984 16.9398 68.7213 16.9398C68.8658 16.9398 69.0827 16.9398 69.155 17.012V17.3735C69.155 17.8072 69.155 18.0964 69.2273 18.241ZM71.0345 18.8916C70.6731 18.3133 70.5285 17.9518 70.5285 17.3012V15.8554C70.5285 15.0602 70.4562 14.7711 70.2393 14.4819C69.9502 14.0482 69.4442 13.9036 68.5767 13.9036C67.9261 13.9036 67.3478 13.9759 66.7695 14.1205L66.9863 15.1325C67.4201 15.0602 67.7815 15.0602 68.0707 15.0602C69.0104 15.0602 69.0827 15.2048 69.0827 15.9277V16.2169C68.8658 16.1446 68.649 16.1446 68.3598 16.1446C66.914 16.1446 66.1911 16.8675 66.1911 17.9518C66.1911 19.0361 66.9863 19.6145 67.9984 19.6145C68.3598 19.6145 68.7213 19.5422 69.0104 19.3976C69.2273 19.3253 69.2996 19.253 69.5164 19.1084C69.661 19.3253 69.9502 19.5422 70.0948 19.5422L71.0345 18.8916ZM40.0948 17.5181C40.0948 18.0241 39.8779 18.3855 39.2273 18.3855C39.0104 18.3855 38.9381 18.3855 38.5767 18.3133V16.7229C38.9381 16.6506 39.0104 16.6506 39.2273 16.6506C39.8779 16.7229 40.0948 17.012 40.0948 17.5181ZM37.2032 13.9759V19.1807C37.8538 19.4699 38.649 19.6145 39.2996 19.6145C40.8177 19.6145 41.6128 18.8193 41.6128 17.5181C41.6128 16.3614 40.8899 15.6386 39.5887 15.6386C39.2273 15.6386 39.0827 15.7108 38.649 15.7831V14.0482H37.2032V13.9759ZM76.2393 19.3976V13.9759H74.7936V16H73.2032V13.9759H71.7574V19.3976H73.2032V17.1566H74.7936V19.3976H76.2393ZM82.0948 19.3976C82.0948 19.3976 81.2996 17.7349 81.155 17.3735C80.9381 16.9398 80.7213 16.6506 80.2875 16.5783C80.5767 16.506 80.7936 16.3614 81.0827 15.7831C81.2996 15.2771 81.3719 15.1325 81.5164 14.988C81.661 14.8434 81.8779 14.9157 81.8779 14.9157L81.9502 13.9036C81.7333 13.9036 81.5164 13.9036 81.2996 13.9036C80.9381 13.9036 80.7213 14.0482 80.5044 14.1928C80.3598 14.3373 80.2875 14.5542 80.143 14.8434C79.9984 15.1325 79.9261 15.3494 79.7815 15.6386C79.6369 15.9277 79.5646 16.0723 79.2032 16.0723H78.9863V14.0482H77.5405V19.4699H78.9863V17.2289H79.2032C79.6369 17.2289 79.7092 17.3012 79.9261 17.7349C80.2152 18.241 80.649 19.3976 80.649 19.3976H82.0948ZM29.1068 19.3976H30.7695L28.3116 11.8072C28.0225 11.7349 27.7333 11.6627 27.3719 11.6627C27.0104 11.6627 26.8658 11.7349 26.5767 11.8072L23.9743 19.3976H25.5646C25.5646 19.3976 25.7815 18.747 25.9984 17.8795H28.7454C28.8899 18.747 29.1068 19.3976 29.1068 19.3976ZM26.3598 16.6506C26.3598 16.6506 26.7936 15.1325 26.8658 14.9157C27.0827 14.2651 27.2996 13.3253 27.2996 13.3253H27.3719C27.3719 13.3253 27.5887 14.3373 27.8056 14.9157C27.8779 15.1325 28.3116 16.6506 28.3116 16.6506H26.3598ZM57.8056 15.7831C57.2996 15.7831 56.8658 16.2169 56.8658 16.7229C56.8658 17.2289 57.2996 17.6627 57.8056 17.6627C58.3116 17.6627 58.7454 17.2289 58.7454 16.7229C58.6731 16.2169 58.3116 15.7831 57.8056 15.7831Z" fill="#E52713"/>
</svg>
