<svg version="1.1" id="Outline" xmlns="http://www.w3.org/2000/svg" xmlns:xlink="http://www.w3.org/1999/xlink" x="0px" y="0px"
	 viewBox="0 0 511.7 269.3" style="enable-background:new 0 0 511.7 269.3;" xml:space="preserve">
<path d="M493.2,89.7L410.7,6.3c-8.3-8.4-21.8-8.4-30.2-0.1c0,0-0.1,0.1-0.1,0.1l0,0c-8.3,8.3-8.3,21.8,0,30.1l75.9,76.6h-435
	C9.6,113,0,122.5,0,134.3l0,0c0,11.8,9.6,21.3,21.3,21.3h436.3l-77.2,77c-8.4,8.3-8.4,21.8-0.1,30.2c0,0,0.1,0.1,0.1,0.1l0,0
	c8.3,8.4,21.8,8.4,30.2,0.1c0,0,0.1-0.1,0.1-0.1l82.6-82.8C517.9,155.2,517.7,114.9,493.2,89.7z"/>
</svg>
