<svg width="330" height="290" viewBox="0 0 330 290" fill="none" xmlns="http://www.w3.org/2000/svg">
<path fill-rule="evenodd" clip-rule="evenodd" d="M150.084 0.958681C134.031 3.03768 117.943 8.23868 102 16.5047C61.171 37.6737 32.509 78.6967 26.495 124.573C25.673 130.846 25 136.489 25 137.113C25 137.738 20.563 133.89 15.14 128.562C9.717 123.234 4.632 118.875 3.84 118.875C1.766 118.875 0 120.943 0 123.371C0 125.762 26.735 152.875 29.093 152.875C29.881 152.875 36.981 146.408 44.871 138.504C56.662 126.692 59.099 123.763 58.557 122.055C58.194 120.912 56.965 119.681 55.824 119.319C54.147 118.787 51.907 120.498 44.107 128.268C38.804 133.552 34.19 137.875 33.855 137.875C33.087 137.875 33.743 130.873 35.555 119.739C39.768 93.8507 53.268 67.7777 72.5 48.3837C124.963 -4.51932 208.731 -5.43932 262.861 46.2947C275.428 58.3057 288.846 78.6967 294.992 95.1237C297.42 101.612 298.141 102.307 301.557 101.45C305.036 100.577 304.755 96.8157 300.461 86.7827C277.865 33.9927 225.072 -0.592316 168 0.00768428C161.675 0.0736843 153.613 0.501681 150.084 0.958681ZM186.6 139.383C165.205 162.754 147.382 181.875 146.992 181.875C146.603 181.875 136.89 171.28 125.408 158.331C107.503 138.138 104.174 134.829 102.016 135.081C100.117 135.303 99.423 136.038 99.188 138.08C98.924 140.371 102.414 144.771 121.998 166.83C136.594 183.271 145.807 192.875 146.981 192.875C149.685 192.875 230.394 104.625 230.83 101.192C231.166 98.5477 229.706 96.9117 227 96.8977C226.175 96.8937 207.995 116.012 186.6 139.383ZM284.995 151.38C269.837 166.565 269.457 167.238 274.308 170.298C275.698 171.174 277.681 169.662 285.959 161.416C291.446 155.949 296.113 151.679 296.331 151.926C296.549 152.173 296.343 155.975 295.875 160.375C290.967 206.456 262.991 246.778 221.434 267.669C212.94 271.939 197.14 277.261 186.5 279.435C174.211 281.948 149.009 282 136.661 279.539C103.201 272.87 73.641 254.496 53.654 227.943C46.288 218.157 38.819 204.811 35.008 194.626C32.58 188.138 31.859 187.443 28.443 188.3C24.964 189.173 25.245 192.934 29.539 202.967C49.664 249.985 93.544 282.666 145 288.96C163.703 291.248 189.001 288.585 207.5 282.381C216.356 279.411 233.086 271.002 241.864 265.109C257.322 254.733 274.748 236.326 284.216 220.375C295.879 200.725 301.255 183.857 304.567 156.514L305.156 151.654L314.938 161.264C320.318 166.55 325.037 170.875 325.426 170.875C327.499 170.875 330 168.525 330 166.576C330 164.015 303.477 136.875 300.974 136.875C300.149 136.875 292.959 143.402 284.995 151.38Z" fill="black"/>
</svg>
