<?xml version="1.0" encoding="utf-8"?>
<!-- Generator: Adobe Illustrator 23.1.0, SVG Export Plug-In . SVG Version: 6.00 Build 0)  -->
<svg version="1.1" id="Слой_1" xmlns="http://www.w3.org/2000/svg" xmlns:xlink="http://www.w3.org/1999/xlink" x="0px" y="0px"
	 viewBox="0 0 331.1 197.9" style="enable-background:new 0 0 331.1 197.9;" xml:space="preserve">
<style type="text/css">
	.st0{fill:#1D1D1B;}
	.st1{fill-rule:evenodd;clip-rule:evenodd;}
</style>
<title>Ресурс 1</title>
<g>
	<g id="Слой_2-2">
		<path class="st0" d="M0,0h158.4c0.4,0,0.6,0.3,0.6,0.6V6l0,0H0l0,0V0L0,0z"/>
		
			<rect x="240.6" y="-57" transform="matrix(0.3514 -0.9362 0.9362 0.3514 124.9684 250.901)" class="st0" width="6" height="184.6"/>
		<rect y="191.9" class="st0" width="159" height="6"/>
		<rect x="156" y="191.9" class="st0" width="175.1" height="6"/>
		<rect class="st0" width="6" height="195.5"/>
		<path class="st0" d="M153,195.5V0l0,0h5.3c0.4,0,0.7,0.3,0.7,0.7l0,0v194.8l0,0H153L153,195.5z"/>
		<path class="st0" d="M199.9,175.2V42.3c0-1.7,1.3-3,3-3l0,0c1.7,0,3,1.3,3,3v132.8c0,1.7-1.3,3-3,3l0,0
			C201.3,178.2,199.9,176.8,199.9,175.2z"/>
		<path class="st0" d="M243.1,174.4V57.8c0-1.7,1.3-3,3-3l0,0c1.7,0,3,1.3,3,3v116.6c0,1.7-1.3,3-3,3l0,0
			C244.5,177.4,243.1,176.1,243.1,174.4z"/>
		<path class="st0" d="M284.1,174.4V76.9c0-1.7,1.3-3,3-3l0,0c1.7,0,3,1.3,3,3v97.5c0,1.7-1.3,3-3,3l0,0
			C285.5,177.4,284.1,176.1,284.1,174.4z"/>
		<path class="st0" d="M325.1,197.9V64.6l0,0h5.3c0.4,0,0.7,0.3,0.7,0.7l0,0v132.5l0,0H325.1L325.1,197.9z"/>
	</g>
</g>
<path class="st1" d="M128,66.1c-0.6,0.6-13.3,14.7-28,31.3s-27.3,30.7-27.7,31.2l-0.8,0.9L54.5,116c-9.3-7.4-17.3-13.7-17.9-14
	c-2.2-1.1-4.9,0.6-4.9,3.2c0,0.8,0.2,1.7,0.5,2.1c0.5,0.6,36.8,29.8,37.9,30.5c0.8,0.5,2.9,0.4,3.7-0.2c1.1-0.8,59.2-66.2,59.9-67.4
	c0.5-0.9,0.5-1.3,0.2-2.5C133,65,130.1,64.2,128,66.1z"/>
</svg>
