<?xml version="1.0" encoding="utf-8"?>
<!-- Generator: Adobe Illustrator 23.1.0, SVG Export Plug-In . SVG Version: 6.00 Build 0)  -->
<svg version="1.1" id="Outline" xmlns="http://www.w3.org/2000/svg" xmlns:xlink="http://www.w3.org/1999/xlink" x="0px" y="0px"
	 viewBox="0 0 512.2 398.7" style="enable-background:new 0 0 512.2 398.7;" xml:space="preserve">
<style type="text/css">
	.st0{fill:#FCC204;}
</style>
<path class="st0" d="M496.5,144.3C463.5,90.4,388.2,0,256.1,0S48.7,90.4,15.6,144.3c-20.9,33.7-20.9,76.4,0,110.1
	C48.7,308.3,124,398.7,256.1,398.7s207.4-90.4,240.4-144.3C517.4,220.7,517.4,178,496.5,144.3z M460.2,232.1
	c-28.4,46.2-92.7,124-204.1,124S80.4,278.3,52,232.1c-12.4-20.1-12.4-45.4,0-65.5c28.4-46.2,92.7-124,204.1-124
	s175.7,77.7,204.1,124C472.6,186.7,472.6,212,460.2,232.1L460.2,232.1z"/>
<path class="st0" d="M256.1,92.7c-58.9,0-106.7,47.8-106.7,106.7S197.2,306,256.1,306s106.7-47.8,106.7-106.7
	C362.7,140.5,315,92.8,256.1,92.7z M256.1,263.4c-35.3,0-64-28.7-64-64s28.7-64,64-64s64,28.7,64,64S291.4,263.4,256.1,263.4z"/>
</svg>
