<?xml version="1.0" encoding="utf-8"?>
<!-- Generator: Adobe Illustrator 23.1.0, SVG Export Plug-In . SVG Version: 6.00 Build 0)  -->
<svg version="1.1" id="Слой_1" xmlns="http://www.w3.org/2000/svg" xmlns:xlink="http://www.w3.org/1999/xlink" x="0px" y="0px"
	 viewBox="0 0 267 512" style="enable-background:new 0 0 267 512;" xml:space="preserve">
<style type="text/css">
	.st0{fill-rule:evenodd;clip-rule:evenodd;fill:#666666;}
</style>
<path class="st0" d="M175,0.9c-28.8,4.5-49,14.3-65.6,31.8c-14,14.7-22.7,32-27.6,54.8c-1.9,8.6-2.1,13.8-2.5,54.3l-0.4,44.8H39.4H0
	V232v45.5l39.3,0.3l39.3,0.3l0.3,116.8L79,511.5h47h47v-117v-117h39c21.4,0,39-0.1,39-0.3c2.6-18.2,11.5-89.5,11.2-90
	c-0.2-0.4-20.4-0.8-44.9-0.8h-44.5l0.3-37.3c0.3-36.4,0.4-37.4,2.7-43.2c4.7-11.7,14.5-18.7,29.3-20.6c4-0.5,19.4-1,34.1-1l26.8,0
	l-0.3-40.8L265.5,3l-13-1.2C231.2-0.1,185-0.7,175,0.9z"/>
</svg>
