<svg width="78" height="32" viewBox="0 0 78 32" fill="none" xmlns="http://www.w3.org/2000/svg">
<path d="M47.8184 22.0434C47.8184 18.0913 47.8184 14.2322 47.8184 10.3465C48.0458 10.3332 48.2466 10.3067 48.4339 10.3067C50.3876 10.3067 52.3546 10.2934 54.3083 10.3067C57.1451 10.3199 58.8178 12.8397 57.667 15.3992C57.5064 15.7573 57.5733 15.9297 57.8409 16.1817C58.9114 17.2161 59.1389 18.4759 58.6037 19.8286C58.055 21.1946 56.9979 22.0036 55.4858 22.0301C52.9568 22.0699 50.4143 22.0434 47.8184 22.0434ZM52.9166 19.2716C53.492 19.2716 54.0808 19.2982 54.6562 19.2716C55.4189 19.2319 55.914 18.7412 55.8739 18.1311C55.8338 17.5741 55.2985 17.1498 54.5759 17.1365C53.773 17.1232 52.9702 17.1232 52.1673 17.1365C50.4679 17.1763 50.7087 16.7784 50.6953 18.6616C50.6953 18.7014 50.682 18.7677 50.6953 18.7942C50.8559 18.9534 51.0031 19.2319 51.1771 19.2584C51.7525 19.3114 52.3279 19.2716 52.9166 19.2716ZM50.6953 15.2003C51.913 15.2003 53.0237 15.2135 54.1343 15.187C54.7365 15.1738 55.1513 14.7229 55.1647 14.1791C55.1647 13.6089 54.7365 13.158 54.1076 13.1314C53.1307 13.1049 52.1539 13.1049 51.1771 13.1447C51.0165 13.1447 50.7355 13.3834 50.7221 13.5293C50.6552 14.0598 50.6953 14.5902 50.6953 15.2003Z" fill="#F04E53"/>
<path d="M31.4273 22.0046C30.397 22.0046 29.4736 22.0046 28.5102 22.0046C29.0588 21.4211 29.5673 20.8907 30.0758 20.3602C30.0357 20.3204 29.9955 20.2673 29.9554 20.2276C29.8617 20.2939 29.7546 20.3337 29.6744 20.4132C27.8545 22.0975 25.7403 22.6147 23.3852 21.7792C21.1371 20.9835 19.8525 19.3258 19.4377 17.0049C18.9024 13.9813 21.1772 10.825 24.2416 10.2945C28.082 9.64465 31.3336 12.2572 31.4273 16.1164C31.4675 18.0526 31.4273 20.0021 31.4273 22.0046ZM25.4057 19.1799C27.0918 19.1534 28.5236 17.7476 28.4968 16.1429C28.47 14.5383 27.065 13.159 25.4325 13.1723C23.7598 13.1723 22.3949 14.5648 22.4217 16.2358C22.4485 17.8537 23.8134 19.1931 25.4057 19.1799Z" fill="#F04E53"/>
<path d="M72.1886 22.0026C71.1983 22.0026 70.2884 22.0026 69.2982 22.0026C69.8468 21.4323 70.3286 20.9284 70.8103 20.4112C70.7701 20.3581 70.7166 20.3184 70.6765 20.2653C70.5025 20.3979 70.3286 20.5438 70.1546 20.6764C66.7691 23.5012 61.7511 22.0557 60.4398 17.8649C59.3425 14.3373 61.8181 10.7036 65.4979 10.2527C69.1644 9.80175 72.2956 12.7591 72.2287 16.2072C72.2019 17.9312 72.2287 19.6553 72.2287 21.3793C72.2421 21.5782 72.2153 21.7639 72.1886 22.0026ZM69.2313 16.1939C69.2313 14.4964 67.8798 13.1437 66.1937 13.1702C64.5746 13.1835 63.1963 14.5362 63.1963 16.1144C63.1829 17.7721 64.5345 19.1778 66.1402 19.1778C67.853 19.1778 69.2313 17.8517 69.2313 16.1939Z" fill="#F04E53"/>
<path d="M17.9797 10.2969C18.2608 12.6575 17.6185 14.5937 15.7718 16.1851C17.5649 17.7235 18.2608 19.6597 17.9931 22.0468C17.1367 22.0468 16.2803 22.0601 15.4239 22.0203C15.3035 22.0203 15.1295 21.7418 15.1028 21.5694C15.0359 21.1318 15.0626 20.6809 15.0225 20.2432C14.8619 18.7049 13.4836 17.498 11.9849 17.5643C10.3123 17.6306 9.06781 18.9038 9.05443 20.5615C9.05443 21.0257 9.05443 21.4766 9.05443 22.0468C8.51918 22.0468 8.03745 22.0468 7.55573 22.0468C7.08738 22.0468 6.61904 22.0468 6.11055 22.0468C5.73587 19.6995 6.44508 17.7633 8.26494 16.1851C6.45846 14.6202 5.76264 12.6973 6.07041 10.3499C7.02048 10.3499 7.95717 10.3499 8.94738 10.3499C8.97414 10.9334 8.98753 11.4904 9.02767 12.0607C9.13472 13.5991 10.4461 14.7926 11.9983 14.7926C13.5907 14.7926 14.9154 13.546 14.9957 11.9944C14.9957 11.9679 14.9957 11.9546 14.9957 11.9281C15.0894 10.2969 15.0894 10.2969 16.6951 10.2969C17.0966 10.2969 17.498 10.2969 17.9797 10.2969Z" fill="#F04E53"/>
<path d="M36.6611 22.0181C35.5906 22.0181 34.6405 22.0181 33.5566 22.0181C33.6102 20.8776 33.6235 19.7503 33.744 18.6496C33.9715 16.4747 34.48 14.3793 35.7244 12.5359C36.4604 11.4485 37.3971 10.5864 38.7486 10.2814C40.2071 9.94988 41.4248 10.3875 42.482 11.3689C43.5792 12.3901 44.2215 13.6897 44.7033 15.0955C45.4526 17.3234 45.6533 19.6177 45.573 22.0049C44.5962 22.0049 43.6461 22.0049 42.5756 22.0049C42.5756 21.5009 42.5756 20.997 42.5756 20.493C42.589 18.7027 42.3348 16.9654 41.5988 15.3209C41.3178 14.7109 40.9164 14.1273 40.4614 13.6234C39.9663 13.0664 39.2972 13.1062 38.7486 13.6101C37.8788 14.4058 37.4506 15.4535 37.1696 16.5543C36.9421 17.4295 36.7682 18.3181 36.6879 19.2199C36.5942 20.1217 36.6611 21.0235 36.6611 22.0181Z" fill="#F04E53"/>
</svg>
