<svg width="52" height="32" viewBox="0 0 52 32" fill="none" xmlns="http://www.w3.org/2000/svg">
<path fill-rule="evenodd" clip-rule="evenodd" d="M6.36305 9.17409C6.78457 9.17155 8.03729 9.05758 8.56792 10.8665C8.92536 12.0851 9.49474 14.0811 10.2761 16.8546H10.5943C11.4321 13.9306 12.0077 11.9346 12.321 10.8665C12.8572 9.03874 14.1976 9.17413 14.7337 9.17413L18.8703 9.17413V22.1718H14.6542V14.5121H14.3715L12.0212 22.1718H8.84911L6.49883 14.5064H6.21611V22.1718H2V9.17413L6.36305 9.17409ZM24.9246 9.17413V16.8396H25.2609L28.1198 10.5363C28.6748 9.28198 29.8576 9.17413 29.8576 9.17413H33.9375V22.1719H29.6333V14.5064H29.297L26.4941 20.8097C25.9392 22.0584 24.7003 22.1719 24.7003 22.1719H20.6204V9.17413H24.9246ZM48.8146 15.3507C48.2142 17.0693 46.3288 18.3001 44.2413 18.3001H39.7276V22.1719H35.6345V15.3507H48.8146Z" fill="#0F754E"/>
<path fill-rule="evenodd" clip-rule="evenodd" d="M44.4387 9.17578H35.4199C35.6346 12.0695 38.1017 14.5467 40.6556 14.5467H49.099C49.5863 12.1417 47.9089 9.17578 44.4387 9.17578Z" fill="url(#paint0_linear_11444_28410)"/>
<defs>
<linearGradient id="paint0_linear_11444_28410" x1="49.1818" y1="12.5544" x2="35.4199" y2="12.5544" gradientUnits="userSpaceOnUse">
<stop stop-color="#1F5CD7"/>
<stop offset="1" stop-color="#02AEFF"/>
</linearGradient>
</defs>
</svg>
