<svg width="39" height="32" viewBox="0 0 39 32" fill="none" xmlns="http://www.w3.org/2000/svg">
<path d="M7.1046 31.1059V29.115C7.1046 28.3534 6.64039 27.8547 5.8435 27.8547C5.44505 27.8547 5.01179 27.9862 4.71393 28.4191C4.48182 28.0557 4.14914 27.8547 3.65012 27.8547C3.31744 27.8547 2.98475 27.9552 2.7217 28.3186V27.9204H2.02539V31.1059H2.7217V29.3469C2.7217 28.7825 3.01957 28.5158 3.48378 28.5158C3.94798 28.5158 4.18009 28.8134 4.18009 29.3469V31.1059H4.8764V29.3469C4.8764 28.7825 5.20908 28.5158 5.63847 28.5158C6.10268 28.5158 6.33479 28.8134 6.33479 29.3469V31.1059H7.1046ZM17.4332 27.9204H16.3036V26.9578H15.6073V27.9204H14.9768V28.5506H15.6073V30.0119C15.6073 30.7425 15.9052 31.1716 16.7021 31.1716C17 31.1716 17.3326 31.0711 17.5647 30.9397L17.3636 30.3405C17.1624 30.4719 16.9303 30.5067 16.764 30.5067C16.4313 30.5067 16.2998 30.3057 16.2998 29.9771V28.5506H17.4294V27.9204H17.4332ZM23.3441 27.8508C22.9457 27.8508 22.6788 28.0519 22.5124 28.3147V27.9166H21.8161V31.102H22.5124V29.3083C22.5124 28.7787 22.7445 28.4771 23.1778 28.4771C23.3093 28.4771 23.4757 28.5119 23.6111 28.5428L23.8122 27.8779C23.6729 27.8508 23.4757 27.8508 23.3441 27.8508ZM14.412 28.1833C14.0793 27.9514 13.6151 27.8508 13.1161 27.8508C12.3192 27.8508 11.7892 28.249 11.7892 28.8792C11.7892 29.4088 12.1877 29.7103 12.884 29.807L13.2167 29.8418C13.5803 29.9075 13.7815 30.008 13.7815 30.1742C13.7815 30.4062 13.5145 30.5724 13.0503 30.5724C12.5861 30.5724 12.2186 30.4062 11.9865 30.24L11.6538 30.7696C12.0175 31.0363 12.5165 31.1678 13.0155 31.1678C13.9439 31.1678 14.4778 30.7348 14.4778 30.1394C14.4778 29.575 14.0445 29.2774 13.383 29.1768L13.0503 29.142C12.7525 29.1073 12.5204 29.0415 12.5204 28.8444C12.5204 28.6124 12.7525 28.481 13.12 28.481C13.5184 28.481 13.9168 28.6472 14.118 28.7477L14.412 28.1833ZM32.9378 27.8508C32.5393 27.8508 32.2724 28.0519 32.1061 28.3147V27.9166H31.4097V31.102H32.1061V29.3083C32.1061 28.7787 32.3382 28.4771 32.7714 28.4771C32.9029 28.4771 33.0693 28.5119 33.2047 28.5428L33.4058 27.8856C33.2704 27.8508 33.0732 27.8508 32.9378 27.8508ZM24.0404 29.5132C24.0404 30.4758 24.7058 31.1716 25.7348 31.1716C26.199 31.1716 26.5317 31.0711 26.8644 30.8082L26.5317 30.2438C26.2648 30.4448 26.0017 30.5415 25.7 30.5415C25.1352 30.5415 24.7368 30.1433 24.7368 29.5132C24.7368 28.914 25.1352 28.5158 25.7 28.4848C25.9979 28.4848 26.2648 28.5854 26.5317 28.7825L26.8644 28.2181C26.5317 27.9514 26.199 27.8547 25.7348 27.8547C24.7058 27.8508 24.0404 28.5506 24.0404 29.5132ZM30.4813 29.5132V27.9204H29.785V28.3186C29.5529 28.0209 29.2202 27.8547 28.787 27.8547C27.8895 27.8547 27.1932 28.5506 27.1932 29.5132C27.1932 30.4758 27.8895 31.1716 28.787 31.1716C29.2512 31.1716 29.5839 31.0054 29.785 30.7077V31.1059H30.4813V29.5132ZM27.9243 29.5132C27.9243 28.9488 28.2879 28.4848 28.8875 28.4848C29.4523 28.4848 29.8508 28.9178 29.8508 29.5132C29.8508 30.0776 29.4523 30.5415 28.8875 30.5415C28.2918 30.5067 27.9243 30.0737 27.9243 29.5132ZM19.5918 27.8508C18.6634 27.8508 17.998 28.5158 17.998 29.5093C17.998 30.5067 18.6634 31.1678 19.6266 31.1678C20.0908 31.1678 20.555 31.0363 20.9225 30.7348L20.5898 30.2361C20.3229 30.4371 19.9902 30.5686 19.6614 30.5686C19.2282 30.5686 18.7988 30.3675 18.6982 29.807H21.054C21.054 29.7065 21.054 29.6407 21.054 29.5402C21.085 28.5158 20.4854 27.8508 19.5918 27.8508ZM19.5918 28.4501C20.025 28.4501 20.3229 28.7168 20.3887 29.2116H18.7291C18.7949 28.7825 19.0928 28.4501 19.5918 28.4501ZM36.8913 29.5132V26.6602H36.195V28.3186C35.9628 28.0209 35.6302 27.8547 35.1969 27.8547C34.2994 27.8547 33.6031 28.5506 33.6031 29.5132C33.6031 30.4758 34.2994 31.1716 35.1969 31.1716C35.6611 31.1716 35.9938 31.0054 36.195 30.7077V31.1059H36.8913V29.5132ZM34.3343 29.5132C34.3343 28.9488 34.6979 28.4848 35.2975 28.4848C35.8623 28.4848 36.2607 28.9178 36.2607 29.5132C36.2607 30.0776 35.8623 30.5415 35.2975 30.5415C34.6979 30.5067 34.3343 30.0737 34.3343 29.5132ZM11.0233 29.5132V27.9204H10.327V28.3186C10.0949 28.0209 9.76219 27.8547 9.32893 27.8547C8.43146 27.8547 7.73515 28.5506 7.73515 29.5132C7.73515 30.4758 8.43146 31.1716 9.32893 31.1716C9.79313 31.1716 10.1258 31.0054 10.327 30.7077V31.1059H11.0233V29.5132ZM8.43533 29.5132C8.43533 28.9488 8.79896 28.4848 9.39856 28.4848C9.96334 28.4848 10.3618 28.9178 10.3618 29.5132C10.3618 30.0776 9.96334 30.5415 9.39856 30.5415C8.79896 30.5067 8.43533 30.0737 8.43533 29.5132Z" fill="black"/>
<path d="M24.6398 3.72656H14.1797V22.5071H24.6398V3.72656Z" fill="#FF5A00"/>
<path d="M14.8769 13.1175C14.8769 9.30186 16.6718 5.91533 19.4261 3.72723C17.3991 2.13448 14.8421 1.17188 12.053 1.17188C5.44573 1.17188 0.0996094 6.51455 0.0996094 13.1175C0.0996094 19.7205 5.44573 25.0631 12.053 25.0631C14.8421 25.0631 17.3991 24.1005 19.4261 22.5078C16.668 20.3506 14.8769 16.9331 14.8769 13.1175Z" fill="#EB001B"/>
<path d="M38.7543 13.1175C38.7543 19.7205 33.4081 25.0631 26.8009 25.0631C24.0118 25.0631 21.4548 24.1005 19.4277 22.5078C22.2169 20.3158 23.977 16.9331 23.977 13.1175C23.977 9.30186 22.182 5.91533 19.4277 3.72723C21.4509 2.13448 24.0079 1.17188 26.797 1.17188C33.4081 1.17188 38.7543 6.54934 38.7543 13.1175Z" fill="#F79E1B"/>
</svg>
