<?xml version="1.0" encoding="utf-8"?>
<!-- Generator: Adobe Illustrator 23.1.0, SVG Export Plug-In . SVG Version: 6.00 Build 0)  -->
<svg version="1.1" id="Capa_1" xmlns="http://www.w3.org/2000/svg" xmlns:xlink="http://www.w3.org/1999/xlink" x="0px" y="0px"
	 viewBox="0 0 320 512.5" style="enable-background:new 0 0 320 512.5;" xml:space="preserve">
<style type="text/css">
	.st0{fill:#666666;}
</style>
<g>
	<path class="st0" d="M160,277.3c76.6,0,138.7-62.1,138.7-138.7S236.6,0,160,0S21.3,62.1,21.3,138.7
		C21.4,215.2,83.5,277.2,160,277.3z M160,64c41.2,0,74.7,33.4,74.7,74.7s-33.4,74.7-74.7,74.7s-74.7-33.4-74.7-74.7S118.8,64,160,64
		z"/>
	<path class="st0" d="M295.8,343c15.1-9.9,24.1-26.8,24.2-44.8c0.2-15-8.2-28.7-21.7-35.3c-13.8-6.9-30.4-5.4-42.7,4
		c-57,41.5-134.3,41.5-191.3,0c-12.3-9.3-28.8-10.9-42.7-4C8.3,269.5-0.2,283.2,0,298.2c0,18,9.1,34.9,24.2,44.8
		c19.3,12.9,40.4,22.9,62.5,29.9c3.8,1.2,7.6,2.2,11.6,3.2l-64.5,63c-16.9,16.4-17.3,43.4-0.9,60.3c16.4,16.9,43.4,17.3,60.3,0.9
		c0.4-0.3,0.7-0.7,1-1l65.7-68l65.8,68.1c16.4,16.9,43.4,17.4,60.3,1c16.9-16.4,17.4-43.4,1-60.3c-0.3-0.4-0.7-0.7-1-1l-64.4-63
		c4-1,7.9-2.1,11.7-3.3C255.5,365.9,276.5,355.9,295.8,343z"/>
</g>
</svg>
