<svg id="SvgjsSvg1025" xmlns="http://www.w3.org/2000/svg" version="1.1" xmlns:xlink="http://www.w3.org/1999/xlink"
     xmlns:svgjs="http://svgjs.com/svgjs" width="48" height="48" viewBox="0 0 48 48">
    <defs id="SvgjsDefs1026"></defs>
    <path id="SvgjsPath1027"
          d="M751 382C764.255 382 775 392.745 775 406C775 419.255 764.255 430 751 430C737.745 430 727 419.255 727 406C727 392.745 737.745 382 751 382Z "
          fill="#fda045" fill-opacity="1" transform="matrix(1,0,0,1,-727,-382)"></path>
    <path id="SvgjsPath1028"
          d="M749.54 411.065C747.2249999999999 410.834 745.1379999999999 410.291 743.3499999999999 408.957C743.1279999999999 408.794 742.8989999999999 408.632 742.6969999999999 408.448C741.9149999999998 407.731 741.8359999999999 406.911 742.4549999999999 406.066C742.9839999999999 405.342 743.8739999999999 405.14799999999997 744.7979999999999 405.563C744.9759999999999 405.643 745.1469999999999 405.74399999999997 745.3099999999998 405.851C748.6409999999998 408.036 753.2159999999998 408.094 756.5599999999998 405.95C756.8919999999998 405.70799999999997 757.2449999999998 405.51099999999997 757.6559999999998 405.40999999999997C758.4539999999998 405.21399999999994 759.1979999999999 405.49399999999997 759.6259999999999 406.15999999999997C760.1159999999999 406.921 760.1089999999998 407.66299999999995 759.5069999999998 408.251C758.5819999999999 409.15599999999995 757.4699999999998 409.81199999999995 756.2339999999998 410.26899999999995C755.0659999999998 410.69999999999993 753.7859999999998 410.91799999999995 752.5199999999998 411.06299999999993C752.7109999999998 411.25999999999993 752.8009999999997 411.35799999999995 752.9209999999997 411.4719999999999C754.6409999999997 413.1209999999999 756.3679999999997 414.76199999999994 758.0819999999997 416.41399999999993C758.6659999999996 416.97599999999994 758.7869999999997 417.6739999999999 758.4659999999997 418.3309999999999C758.1149999999997 419.0459999999999 757.3269999999997 419.5159999999999 756.5559999999997 419.4649999999999C756.0669999999997 419.4339999999999 755.6849999999997 419.2009999999999 755.3469999999998 418.87499999999994C754.0489999999998 417.6309999999999 752.7269999999997 416.41099999999994 751.4549999999997 415.14199999999994C751.0849999999997 414.77099999999996 750.9069999999997 414.84099999999995 750.5809999999997 415.1599999999999C749.2749999999996 416.4429999999999 747.9479999999996 417.7049999999999 746.6139999999997 418.9589999999999C746.0139999999997 419.5219999999999 745.3009999999997 419.6239999999999 744.6059999999997 419.3029999999999C743.8669999999996 418.9619999999999 743.3969999999997 418.2419999999999 743.4329999999997 417.51999999999987C743.4579999999996 417.0309999999999 743.7109999999997 416.65699999999987 744.0629999999996 416.3219999999999C745.7639999999997 414.6999999999999 747.4619999999996 413.0759999999999 749.1589999999997 411.4539999999999C749.2719999999997 411.3459999999999 749.3769999999996 411.2329999999999 749.5399999999996 411.0649999999999ZM750.951 405.42C746.82 405.408 743.433 402.142 743.458 398.197C743.481 394.21 746.87 390.995 751.0419999999999 391.004C755.2209999999999 391.01500000000004 758.5749999999999 394.27700000000004 758.555 398.307C758.5329999999999 402.244 755.1229999999999 405.434 750.9509999999999 405.42ZM754.705 398.206C754.6980000000001 396.248 753.061 394.69 751.0120000000001 394.68800000000005C748.945 394.68600000000004 747.2940000000001 396.27400000000006 747.3100000000001 398.249C747.325 400.20000000000005 748.975 401.749 751.0310000000001 401.74100000000004C753.08 401.73500000000007 754.711 400.16700000000003 754.705 398.206Z "
          fill="#ffffff" fill-opacity="1" transform="matrix(1,0,0,1,-727,-382)"></path>
</svg>