<svg width="445" height="445" viewBox="0 0 445 445" fill="none" xmlns="http://www.w3.org/2000/svg">
<path fill-rule="evenodd" clip-rule="evenodd" d="M1.29 1.29C-0.43 3.01 -0.43 72.17 1.29 73.89C2.122 74.722 7.323 75.09 18.238 75.09H33.985L34.288 80.237C34.842 89.672 41.09 89.446 41.09 79.992V75.138L57.84 74.864L74.59 74.59L74.864 57.34L75.137 40.09H80.546C85.119 40.09 86.056 39.773 86.605 38.042C87.643 34.771 85.39 33.09 79.968 33.09H75.09V17.79C75.09 7.223 74.719 2.119 73.89 1.29C72.17 -0.43 3.01 -0.43 1.29 1.29ZM370.29 1.29C369.461 2.119 369.09 7.223 369.09 17.79V33.09H364.212C358.79 33.09 356.537 34.771 357.575 38.042C358.124 39.773 359.061 40.09 363.634 40.09H369.043L369.316 57.34L369.59 74.59L387.291 74.863L404.992 75.136L405.291 80.853C405.538 85.58 405.925 86.634 407.524 86.939C410.257 87.46 412.09 84.433 412.09 79.399V75.09H426.89C437.068 75.09 442.065 74.715 442.89 73.89C444.61 72.17 444.61 3.01 442.89 1.29C441.17 -0.43 372.01 -0.43 370.29 1.29ZM68.09 37.59V68.09H37.59H7.09V37.59V7.09H37.59H68.09V37.59ZM437.09 37.59V68.09H406.59H376.09V37.59V7.09H406.59H437.09V37.59ZM106.164 34.952C105.469 36.25 105.537 37.319 106.386 38.481C107.445 39.928 109.518 40.111 122.098 39.869C136.521 39.591 136.592 39.579 136.927 37.203C137.113 35.89 136.663 34.435 135.927 33.968C135.192 33.502 128.418 33.114 120.875 33.105C108.514 33.092 107.062 33.274 106.164 34.952ZM157.253 33.968C156.517 34.435 156.067 35.89 156.253 37.203C156.589 39.58 156.652 39.591 171.196 39.866C183.036 40.09 186.032 39.865 187.015 38.68C187.919 37.591 187.947 36.692 187.124 35.154C186.09 33.221 185.146 33.091 172.305 33.105C164.762 33.114 157.988 33.502 157.253 33.968ZM207.02 34.674C206.067 35.823 205.994 36.715 206.757 37.924C207.658 39.352 209.849 39.59 222.09 39.59C234.331 39.59 236.522 39.352 237.423 37.924C238.186 36.715 238.113 35.823 237.16 34.674C235.217 32.333 208.963 32.333 207.02 34.674ZM257.056 35.154C256.233 36.692 256.261 37.591 257.165 38.68C258.148 39.865 261.144 40.09 272.984 39.866C287.528 39.591 287.591 39.58 287.927 37.203C288.113 35.89 287.663 34.435 286.927 33.968C286.192 33.502 279.418 33.114 271.875 33.105C259.034 33.091 258.09 33.221 257.056 35.154ZM308.253 33.968C307.517 34.435 307.067 35.89 307.253 37.203C307.589 39.581 307.647 39.591 322.291 39.866C336.014 40.125 337.061 40.013 338.039 38.186C338.836 36.697 338.711 35.854 337.517 34.659C336.248 33.391 333.423 33.093 322.769 33.105C315.52 33.114 308.988 33.502 308.253 33.968ZM83.661 83.661C82.734 84.589 82.213 85.968 82.504 86.727C82.795 87.485 85.072 96.09 87.564 105.848C94.358 132.451 93.884 131.09 96.363 131.09C97.724 131.09 101.188 128.463 105.58 124.1L112.617 117.11L165.1 169.6L217.583 222.09L165.1 274.58L112.617 327.07L105.58 320.08C97.272 311.827 94.688 311.154 93.158 316.84C86.676 340.926 82.373 358.663 82.764 359.682C83.028 360.371 83.788 361.144 84.453 361.399C85.441 361.778 120.746 353.245 128.84 350.671C132.84 349.399 131.541 346.091 124.1 338.6L117.11 331.563L169.6 279.08L222.09 226.597L274.58 279.08L327.07 331.563L320.08 338.6C311.827 346.908 311.154 349.492 316.84 351.022C340.926 357.504 358.663 361.807 359.682 361.416C360.371 361.152 361.146 360.386 361.404 359.715C361.788 358.714 356.405 336.41 351.178 317.34C349.47 311.11 347.113 311.623 338.6 320.08L331.563 327.07L279.08 274.58L226.597 222.09L279.08 169.6L331.563 117.11L338.6 124.1C346.908 132.353 349.492 133.026 351.022 127.34C357.504 103.254 361.807 85.517 361.416 84.498C361.152 83.809 360.371 83.028 359.682 82.764C358.663 82.373 340.926 86.676 316.84 93.158C311.154 94.688 311.827 97.272 320.08 105.58L327.07 112.617L274.58 165.1L222.09 217.583L169.6 165.1L117.11 112.617L124.1 105.58C132.097 97.529 132.916 94.822 127.84 93.218C126.053 92.653 116.286 90.094 106.136 87.531C95.987 84.968 87.157 82.669 86.515 82.423C85.873 82.177 84.589 82.734 83.661 83.661ZM106.481 94.707C114.241 96.697 120.687 98.407 120.806 98.507C120.925 98.608 115.949 103.75 109.747 109.934L98.47 121.178L94.78 106.736C92.751 98.793 91.09 92.023 91.09 91.692C91.09 90.778 91.363 90.831 106.481 94.707ZM352.595 94.069C352.235 95.708 350.506 102.46 348.753 109.073L345.565 121.098L334.28 109.78L322.995 98.463L336.792 94.861C354.075 90.349 353.404 90.382 352.595 94.069ZM35.814 106.224C34.312 107.065 34.092 108.95 34.105 120.89C34.114 128.425 34.502 135.192 34.968 135.927C35.435 136.663 36.89 137.113 38.203 136.927C40.581 136.591 40.591 136.533 40.866 121.889C41.117 108.584 40.972 107.097 39.341 106.224C38.183 105.605 36.921 105.605 35.814 106.224ZM406.78 106.244C405.315 107.064 405.09 109.116 405.09 121.671C405.09 134.156 405.316 136.239 406.726 136.781C407.626 137.126 409.088 136.951 409.976 136.392C411.292 135.564 411.643 133.088 411.879 122.983C412.038 116.167 411.929 109.627 411.638 108.45C410.994 105.852 409.054 104.971 406.78 106.244ZM34.718 157.618C34.372 158.517 34.09 165.276 34.09 172.637C34.09 184.665 34.278 186.12 35.952 187.016C37.25 187.711 38.319 187.643 39.481 186.794C40.928 185.735 41.111 183.662 40.869 171.082L40.59 156.59L37.968 156.286C36.259 156.088 35.127 156.552 34.718 157.618ZM405.757 156.757C404.511 158.002 404.999 185.599 406.29 186.89C407.871 188.471 408.633 188.405 410.519 186.519C411.789 185.248 412.09 182.411 412.09 171.719C412.09 162.763 411.702 158.102 410.89 157.29C409.583 155.983 406.818 155.695 405.757 156.757ZM35.183 207.477C34.406 208.414 34.123 213.331 34.311 222.62C34.545 234.172 34.857 236.544 36.256 237.425C37.464 238.185 38.358 238.112 39.506 237.16C40.81 236.077 41.09 233.427 41.09 222.168C41.09 208.641 40.522 206.09 37.512 206.09C36.865 206.09 35.817 206.714 35.183 207.477ZM405.757 206.757C405.39 207.123 405.09 214.068 405.09 222.189C405.09 236.47 405.161 236.978 407.264 237.645C411.215 238.899 412.09 235.99 412.09 221.599C412.09 212.736 411.701 208.101 410.89 207.29C409.583 205.983 406.818 205.695 405.757 206.757ZM35.84 257.17C34.307 258.063 34.09 259.903 34.09 272.017C34.09 286.575 34.716 288.692 38.792 287.91C40.407 287.6 40.618 286.107 40.868 273.214C41.185 256.85 40.445 254.488 35.84 257.17ZM406.29 257.29C405.468 258.112 405.09 263.008 405.09 272.821C405.09 285.167 405.317 287.24 406.726 287.781C407.626 288.126 409.088 287.951 409.976 287.392C412.394 285.869 412.89 260.033 410.546 257.689C408.632 255.775 407.876 255.704 406.29 257.29ZM34.718 308.618C34.372 309.517 34.09 316.035 34.09 323.1C34.09 333.439 34.396 336.254 35.659 337.517C36.854 338.711 37.697 338.836 39.186 338.039C41.013 337.061 41.125 336.014 40.866 322.291L40.59 307.59L37.968 307.286C36.259 307.088 35.127 307.552 34.718 308.618ZM405.757 307.757C405.39 308.123 405.09 314.858 405.09 322.721C405.09 335.825 405.251 337.106 407.021 338.053C408.478 338.833 409.336 338.701 410.521 337.517C411.788 336.249 412.09 333.404 412.09 322.719C412.09 313.763 411.702 309.102 410.89 308.29C409.583 306.983 406.818 306.695 405.757 307.757ZM120.806 345.673C120.053 346.307 91.796 353.13 91.432 352.765C91.184 352.517 92.666 345.719 94.725 337.658L98.47 323.002L109.747 334.246C115.949 340.43 120.925 345.572 120.806 345.673ZM349.634 338.43C351.619 346.042 353.034 352.479 352.778 352.735C352.523 352.99 345.719 351.514 337.658 349.455L323.002 345.71L334.292 334.388C340.501 328.16 345.681 323.408 345.803 323.828C345.925 324.247 347.649 330.818 349.634 338.43ZM35.29 358.29C34.63 358.95 34.09 361.65 34.09 364.29V369.09H18.29C7.334 369.09 2.122 369.458 1.29 370.29C-0.43 372.01 -0.43 441.17 1.29 442.89C2.178 443.778 11.623 444.09 37.59 444.09C63.557 444.09 73.002 443.778 73.89 442.89C74.719 442.061 75.09 436.957 75.09 426.39V411.09H79.968C85.39 411.09 87.643 409.409 86.605 406.138C86.056 404.407 85.119 404.09 80.546 404.09H75.137L74.864 386.84L74.59 369.59L57.84 369.316L41.09 369.042V364.266C41.09 359.633 39.85 357.09 37.59 357.09C36.985 357.09 35.95 357.63 35.29 358.29ZM405.757 357.757C405.39 358.123 405.09 360.813 405.09 363.734V369.044L387.34 369.317L369.59 369.59L369.316 386.84L369.043 404.09H363.535C359.358 404.09 357.876 404.485 357.399 405.726C356.23 408.773 358.511 410.573 363.943 410.892L369.09 411.195V426.442C369.09 436.968 369.462 442.062 370.29 442.89C371.178 443.778 380.623 444.09 406.59 444.09C432.557 444.09 442.002 443.778 442.89 442.89C444.61 441.17 444.61 372.01 442.89 370.29C442.065 369.465 437.068 369.09 426.89 369.09H412.09V364.29C412.09 361.65 411.55 358.95 410.89 358.29C409.583 356.983 406.818 356.695 405.757 357.757ZM68.09 406.59V437.09H37.59H7.09V406.59V376.09H37.59H68.09V406.59ZM437.09 406.59V437.09H406.59H376.09V406.59V376.09H406.59H437.09V406.59ZM106.141 405.994C105.344 407.483 105.469 408.326 106.663 409.521C107.932 410.789 110.757 411.087 121.411 411.075C128.66 411.066 135.192 410.678 135.927 410.212C136.663 409.745 137.113 408.29 136.927 406.977C136.591 404.599 136.533 404.589 121.889 404.314C108.166 404.055 107.119 404.167 106.141 405.994ZM156.757 404.757C155.484 406.03 156.099 409.879 157.672 410.483C158.542 410.817 165.276 411.09 172.637 411.09C185.134 411.09 186.093 410.953 187.124 409.026C189.381 404.81 187.121 404.09 171.634 404.09C163.818 404.09 157.123 404.39 156.757 404.757ZM207.02 405.674C206.067 406.823 205.994 407.715 206.757 408.924C207.658 410.352 209.849 410.59 222.09 410.59C234.331 410.59 236.522 410.352 237.423 408.924C238.186 407.715 238.113 406.823 237.16 405.674C236.077 404.369 233.42 404.09 222.09 404.09C210.76 404.09 208.103 404.369 207.02 405.674ZM257.165 405.5C256.261 406.589 256.233 407.488 257.056 409.026C258.09 410.959 259.034 411.089 271.875 411.075C279.418 411.066 286.192 410.678 286.927 410.212C287.663 409.745 288.113 408.29 287.927 406.977C287.591 404.6 287.528 404.589 272.984 404.314C261.144 404.09 258.148 404.315 257.165 405.5ZM307.757 404.757C306.484 406.03 307.099 409.879 308.672 410.483C309.542 410.817 316.035 411.09 323.1 411.09C333.439 411.09 336.254 410.784 337.517 409.521C338.701 408.336 338.833 407.478 338.053 406.021C337.106 404.251 335.825 404.09 322.721 404.09C314.858 404.09 308.123 404.39 307.757 404.757Z" fill="black"/>
</svg>
