<svg width="103" height="32" viewBox="0 0 103 32" fill="none" xmlns="http://www.w3.org/2000/svg">
<path d="M14.3125 11.1094C14.6874 11.6007 15.0049 12.1345 15.2584 12.7L8.06769 18.072L5.0625 16.1629V13.866L8.06769 15.7752L14.3125 11.1094Z" fill="#21A038"/>
<path d="M1.99558 15.9992C1.99558 15.8962 1.99806 15.7938 2.00302 15.692L0.181794 15.6016C0.175595 15.7335 0.171877 15.8667 0.171877 16.0011C0.171102 17.0514 0.37495 18.0915 0.771732 19.0618C1.16851 20.032 1.75041 20.9134 2.48405 21.6552L3.7759 20.3466C3.21117 19.7766 2.76316 19.099 2.45763 18.353C2.15211 17.6069 1.99508 16.807 1.99558 15.9992Z" fill="url(#paint0_linear_11444_28417)"/>
<path d="M8.06648 9.847C8.16812 9.847 8.26913 9.85077 8.36956 9.85579L8.46069 8.00943C8.33013 8.00315 8.1987 8.00001 8.06648 8.00001C7.02961 7.99872 6.00277 8.20502 5.04484 8.60704C4.0869 9.00906 3.21676 9.5989 2.48438 10.3427L3.77622 11.6519C4.33869 11.0794 5.00729 10.6252 5.74357 10.3154C6.47985 10.0057 7.26925 9.84649 8.06648 9.847Z" fill="url(#paint1_linear_11444_28417)"/>
<path d="M8.06672 22.1519C7.96508 22.1519 7.86402 22.1519 7.763 22.1437L7.67188 23.9895C7.80287 23.9962 7.9345 23.9996 8.06672 23.9996C9.10315 24.0006 10.1295 23.7942 11.0869 23.3921C12.0443 22.9899 12.9139 22.4 13.6457 21.6562L12.3564 20.3477C11.7938 20.9199 11.1253 21.3738 10.3891 21.6834C9.65301 21.9931 8.86375 22.1523 8.06672 22.1519Z" fill="url(#paint2_linear_11444_28417)"/>
<path d="M11.4868 10.9213L13.0216 9.77476C11.6188 8.6235 9.86763 7.9968 8.0625 8.00001V9.84763C9.28485 9.8461 10.4788 10.2205 11.4868 10.9213Z" fill="url(#paint3_linear_11444_28417)"/>
<path d="M15.9596 16C15.9606 15.5194 15.9191 15.0396 15.8356 14.5664L14.1365 15.8354C14.1365 15.8901 14.1365 15.9448 14.1365 16C14.1369 16.8596 13.9591 17.7097 13.6147 18.4952C13.2701 19.2807 12.7666 19.9841 12.1367 20.5597L13.3623 21.9324C14.1811 21.1832 14.8355 20.2679 15.283 19.246C15.7305 18.224 15.9609 17.1181 15.9596 16Z" fill="#21A038"/>
<path d="M8.06649 22.1517C7.21824 22.152 6.37939 21.9717 5.60422 21.6226C4.8291 21.2735 4.13494 20.7633 3.56672 20.125L2.21289 21.3664C2.95208 22.1964 3.85516 22.8597 4.86358 23.3133C5.87199 23.7669 6.9632 24.0006 8.06649 23.9993V22.1517Z" fill="url(#paint4_linear_11444_28417)"/>
<path d="M3.99534 11.4391L2.77045 10.0664C1.95131 10.8155 1.29668 11.7307 0.849014 12.7527C0.401354 13.7747 0.170655 14.8806 0.17188 15.9988H1.99559C1.99521 15.1392 2.17303 14.2891 2.51752 13.5036C2.86202 12.7182 3.36549 12.0148 3.99534 11.4391Z" fill="url(#paint5_linear_11444_28417)"/>
<path d="M45.7284 12.5736L47.9871 10.9062H40.4277V20.9255H47.9871V19.2582H42.5847V16.6917H47.1932V15.0244H42.5847V12.5736H45.7284Z" fill="#21A038"/>
<path d="M35.3407 14.8112H32.7163V12.5748H36.9048L39.1621 10.9023H30.5605V20.9216H35.0631C37.5874 20.9216 39.0362 19.7753 39.0362 17.776C39.0362 15.8633 37.7239 14.8112 35.3407 14.8112ZM34.966 19.2538H32.7163V16.4776H34.966C36.3313 16.4776 36.9715 16.9428 36.9715 17.8657C36.9715 18.7885 36.2903 19.2538 34.966 19.2538Z" fill="#21A038"/>
<path d="M53.5425 10.9062H49.4277V20.9255H51.5844V18.0872H53.5425C56.1678 18.0872 57.7918 16.7031 57.7918 14.4914C57.7918 12.2798 56.1678 10.9062 53.5425 10.9062ZM53.497 16.4186H51.5844V12.5749H53.497C54.8779 12.5749 55.64 13.2578 55.64 14.4975C55.64 15.7372 54.8779 16.4186 53.497 16.4186Z" fill="#21A038"/>
<path d="M27.3245 18.5601C26.7674 18.8624 26.1431 19.0189 25.5096 19.0152C23.6135 19.0152 22.2379 17.6589 22.2379 15.7911C22.2379 13.9233 23.6135 12.564 25.5096 12.564C26.1934 12.5524 26.863 12.7601 27.4206 13.1569L28.9293 12.0437L28.8272 11.971C27.9472 11.1958 26.7713 10.7852 25.4254 10.7852C23.9655 10.7852 22.6417 11.2773 21.6966 12.1726C21.2187 12.6336 20.8407 13.1884 20.5862 13.8023C20.3318 14.4162 20.2062 15.076 20.2175 15.7407C20.2074 16.4121 20.3324 17.0787 20.585 17.7006C20.8376 18.3226 21.2126 18.8871 21.6877 19.3606C22.6373 20.2915 23.9581 20.8044 25.4076 20.8044C26.9222 20.8044 28.246 20.2752 29.1423 19.3117L27.7919 18.3037L27.3245 18.5601Z" fill="#21A038"/>
<path d="M66.343 14.8112H63.7197V12.5748H69.3572V10.9023H61.5625V20.9216H66.0593C68.5834 20.9216 70.0322 19.7753 70.0322 17.776C70.0381 15.8633 68.7262 14.8112 66.343 14.8112ZM65.9683 19.2538H63.7197V16.4776H65.9683C67.3336 16.4776 67.9734 16.9428 67.9734 17.8657C67.9734 18.7885 67.2983 19.2538 65.9683 19.2538Z" fill="#21A038"/>
<path d="M94.5537 20.906H92.3672V10.8867H94.5537V15.0949H95.7438L98.9576 10.8867H101.436L97.6237 15.653L102.05 20.906H99.1489L95.8955 16.9655H94.5537V20.906Z" fill="#21A038"/>
<path d="M77.9767 19.0033H73.3513L72.5672 20.949H70.2402L74.5786 10.9297H76.905L81.1729 20.949H78.7609L77.9767 19.0033ZM77.2523 17.1879L75.6777 13.2966L74.0943 17.1879H77.2523Z" fill="#21A038"/>
<path d="M84.1158 10.9297V15.1136H88.6405V10.9297H90.8951V20.949H88.6405V17.001H84.1158V20.949H81.8613V10.9297H84.1158Z" fill="#21A038"/>
<defs>
<linearGradient id="paint0_linear_11444_28417" x1="2.85289" y1="21.4246" x2="0.812493" y2="15.6046" gradientUnits="userSpaceOnUse">
<stop offset="0.14" stop-color="#F1E813"/>
<stop offset="0.3" stop-color="#E6E418"/>
<stop offset="0.58" stop-color="#C9DA26"/>
<stop offset="0.89" stop-color="#A2CC39"/>
</linearGradient>
<linearGradient id="paint1_linear_11444_28417" x1="3.00508" y1="10.6694" x2="8.15433" y2="8.7331" gradientUnits="userSpaceOnUse">
<stop offset="0.06" stop-color="#0FA7DF"/>
<stop offset="0.54" stop-color="#0098F8"/>
<stop offset="0.92" stop-color="#0290EA"/>
</linearGradient>
<linearGradient id="paint2_linear_11444_28417" x1="7.55164" y1="22.8844" x2="13.3624" y2="21.5891" gradientUnits="userSpaceOnUse">
<stop offset="0.12" stop-color="#A2CC39"/>
<stop offset="0.28" stop-color="#86C239"/>
<stop offset="0.87" stop-color="#219F38"/>
</linearGradient>
<linearGradient id="paint3_linear_11444_28417" x1="7.68316" y1="8.61882" x2="12.6561" y2="10.1331" gradientUnits="userSpaceOnUse">
<stop offset="0.06" stop-color="#0290EA"/>
<stop offset="0.79" stop-color="#0C89CA"/>
</linearGradient>
<linearGradient id="paint4_linear_11444_28417" x1="2.67036" y1="21.1415" x2="8.08835" y2="23.1395" gradientUnits="userSpaceOnUse">
<stop offset="0.13" stop-color="#F1E813"/>
<stop offset="0.3" stop-color="#EAE616"/>
<stop offset="0.53" stop-color="#D8DF1F"/>
<stop offset="0.8" stop-color="#BAD52D"/>
<stop offset="0.98" stop-color="#A2CC39"/>
</linearGradient>
<linearGradient id="paint5_linear_11444_28417" x1="0.851274" y1="16.2224" x2="3.07002" y2="10.5273" gradientUnits="userSpaceOnUse">
<stop offset="0.07" stop-color="#A2CC39"/>
<stop offset="0.26" stop-color="#81C45E"/>
<stop offset="0.92" stop-color="#0FA7DF"/>
</linearGradient>
</defs>
</svg>
