<svg width="58" height="32" viewBox="0 0 58 32" fill="none" xmlns="http://www.w3.org/2000/svg">
<path d="M51.5092 9.3833V16.5308H48.9569V11.517H46.4995V16.5308H43.9473V9.38281H51.5092V9.3833Z" fill="black"/>
<path fill-rule="evenodd" clip-rule="evenodd" d="M38.7096 16.7892C40.9943 16.7892 42.6909 15.3883 42.6909 13.2647C42.6909 11.2092 41.4392 9.87462 39.3472 9.87462C38.3817 9.87462 37.585 10.2145 36.985 10.8009C37.1282 9.58885 38.1532 8.704 39.2817 8.704C39.5421 8.704 41.5028 8.69986 41.5028 8.69986L42.6115 6.57812C42.6115 6.57812 40.1499 6.63416 39.0056 6.63416C36.391 6.67972 34.625 9.05628 34.625 11.9428C34.625 15.3055 36.3474 16.7892 38.7096 16.7892ZM38.7235 11.7539C39.5718 11.7539 40.1599 12.3114 40.1599 13.2644C40.1599 14.1222 39.6373 14.829 38.7235 14.8309C37.8494 14.8309 37.2613 14.1761 37.2613 13.279C37.2613 12.3257 37.8494 11.7539 38.7235 11.7539Z" fill="black"/>
<path d="M32.5452 14.1366C32.5452 14.1366 31.9425 14.484 31.0423 14.5498C30.0074 14.5805 29.0853 13.9269 29.0853 12.7655C29.0853 11.6326 29.899 10.9834 31.0162 10.9834C31.7013 10.9834 32.6076 11.4582 32.6076 11.4582C32.6076 11.4582 33.2708 10.2413 33.6143 9.63272C32.9852 9.15594 32.1474 8.89453 31.1729 8.89453C28.7135 8.89453 26.8086 10.4981 26.8086 12.7511C26.8086 15.0329 28.599 16.5992 31.1729 16.5519C31.8923 16.5251 32.8849 16.2725 33.4898 15.8839L32.5452 14.1366Z" fill="black"/>
<path d="M0 7.53906L3.54036 13.8672V17.7272L0.00414163 24.043L0 7.53906Z" fill="#5B57A2"/>
<path d="M13.5938 11.5631L16.9112 9.52977L23.7005 9.52344L13.5938 15.7149V11.5631Z" fill="#D90751"/>
<path d="M13.5768 7.49809L13.5955 15.8764L10.0469 13.6959V1.17188L13.577 7.49809H13.5768Z" fill="#FAB718"/>
<path d="M23.7023 9.52116L16.9127 9.52749L13.5768 7.49809L10.0469 1.17188L23.7021 9.52116H23.7023Z" fill="#ED6F26"/>
<path d="M13.5955 24.0789V20.014L10.0469 17.875L10.0488 30.4115L13.5955 24.0789Z" fill="#63B22F"/>
<path d="M16.9027 22.0633L3.54012 13.8672L0 7.53906L23.686 22.055L16.9025 22.0633H16.9027Z" fill="#1487C9"/>
<path d="M10.0469 30.4064L13.5931 24.0738L16.9022 22.0591L23.6855 22.0508L10.0469 30.4064Z" fill="#017F36"/>
<path d="M0.00390625 24.0426L10.0737 17.874L6.68826 15.7969L3.54013 17.7269L0.00390625 24.0426Z" fill="#984995"/>
<path d="M29.0873 21.3449C29.0094 21.4443 28.9068 21.5193 28.7838 21.57C28.6575 21.6214 28.5225 21.6476 28.3862 21.647C28.2506 21.6488 28.1159 21.6262 27.9883 21.5802C27.8738 21.5386 27.7691 21.4738 27.6809 21.3897C27.5938 21.3055 27.5254 21.2039 27.4801 21.0915C27.4312 20.9684 27.4068 20.8369 27.4083 20.7044C27.4083 20.5729 27.4309 20.451 27.4779 20.3356C27.523 20.2198 27.5886 20.1207 27.6707 20.0374C27.7528 19.9523 27.8512 19.8875 27.9618 19.8369C28.0746 19.7881 28.1976 19.7618 28.3328 19.7618C28.4785 19.7618 28.6137 19.7801 28.7368 19.8164C28.8598 19.8529 28.9643 19.9139 29.0503 19.9991L28.9007 20.2525C28.8284 20.1869 28.7432 20.1371 28.6505 20.1063C28.5624 20.0779 28.4704 20.0636 28.3779 20.0639C28.296 20.0639 28.2181 20.08 28.1423 20.1105C28.0676 20.1405 27.9994 20.1846 27.9413 20.2403C27.8819 20.2976 27.8351 20.3666 27.8039 20.443C27.7691 20.5219 27.7528 20.6092 27.7528 20.7064C27.7528 20.8058 27.771 20.8949 27.8059 20.9719C27.8409 21.0511 27.888 21.1181 27.9474 21.1746C28.0069 21.2316 28.0765 21.274 28.1564 21.3025C28.2366 21.333 28.3206 21.3471 28.4108 21.3471C28.5214 21.3471 28.622 21.3247 28.708 21.282C28.7932 21.2409 28.8698 21.1838 28.9336 21.1139L29.0873 21.3449ZM29.5095 21.6044V19.8003H29.8336V21.1444L30.8872 19.8003H31.2113V21.6046H30.8872V20.2605L29.8336 21.6046H29.5095V21.6044ZM33.3576 21.3449C33.2779 21.4451 33.1733 21.5228 33.0543 21.57C32.928 21.6214 32.7928 21.6475 32.6564 21.647C32.521 21.6488 32.3863 21.6262 32.2588 21.5802C32.1442 21.5387 32.0395 21.4738 31.9511 21.3897C31.864 21.3055 31.7956 21.2039 31.7504 21.0915C31.7014 20.9684 31.677 20.8369 31.6785 20.7044C31.6785 20.5729 31.7012 20.451 31.7482 20.3356C31.7935 20.2198 31.8591 20.1207 31.9409 20.0374C32.023 19.9523 32.1214 19.8875 32.232 19.8369C32.3489 19.7854 32.4755 19.7598 32.6031 19.7618C32.7488 19.7618 32.884 19.7801 33.007 19.8164C33.1301 19.8529 33.2346 19.9139 33.3208 19.9991L33.171 20.2525C33.0988 20.1869 33.0136 20.1371 32.921 20.1063C32.8329 20.078 32.7409 20.0636 32.6484 20.0639C32.4856 20.0644 32.3291 20.1276 32.2116 20.2403C32.1527 20.298 32.106 20.3669 32.0742 20.443C32.0393 20.5219 32.023 20.6092 32.023 20.7064C32.023 20.8058 32.0415 20.8949 32.0764 20.9719C32.1112 21.0511 32.1582 21.1181 32.2177 21.1746C32.2771 21.2316 32.347 21.274 32.4269 21.3025C32.5069 21.3308 32.5909 21.3471 32.6811 21.3471C32.7919 21.3471 32.8903 21.3247 32.9783 21.282C33.0635 21.2409 33.1401 21.1838 33.2039 21.1139L33.3576 21.3449ZM33.5238 19.8003H35.1863V20.1207H34.518V21.6044H34.194V20.1207H33.5257V19.8003H33.5238Z" fill="black"/>
<path fill-rule="evenodd" clip-rule="evenodd" d="M36.7003 21.5765C36.8234 21.538 36.9279 21.479 37.018 21.3981L36.9196 21.1467C36.8602 21.1996 36.7802 21.2442 36.684 21.2807C36.5875 21.3173 36.4789 21.3353 36.36 21.3353C36.1817 21.3353 36.034 21.2888 35.9171 21.1935C35.8004 21.098 35.7368 20.9645 35.7224 20.7939H37.1247C37.1391 20.7311 37.1452 20.6602 37.1452 20.5771C37.1452 20.4534 37.1225 20.342 37.0775 20.2407C37.0355 20.1423 36.9742 20.0533 36.8972 19.979C36.8191 19.9055 36.7271 19.8483 36.6265 19.8109C36.5213 19.7701 36.4093 19.7494 36.2964 19.75C36.1446 19.75 36.0114 19.7763 35.8947 19.8251C35.7843 19.8715 35.6846 19.9398 35.6013 20.0258C35.5206 20.1114 35.4585 20.2129 35.4191 20.3238C35.3758 20.4418 35.3543 20.5668 35.3555 20.6926C35.3555 20.8346 35.3801 20.9642 35.4252 21.08C35.4691 21.1921 35.5361 21.2936 35.6221 21.3779C35.7061 21.4607 35.8084 21.5238 35.9295 21.5684C36.0591 21.6144 36.1959 21.637 36.3334 21.6352C36.458 21.6344 36.5817 21.6147 36.7003 21.5767V21.5765ZM35.8803 20.1878C35.9807 20.0967 36.1139 20.0521 36.282 20.0521C36.4399 20.0521 36.5671 20.0947 36.6594 20.18C36.7517 20.265 36.8007 20.3827 36.809 20.5325H35.702C35.7176 20.3999 35.781 20.2774 35.8803 20.1881V20.1878Z" fill="black"/>
<path d="M37.584 19.793H37.8793L38.5804 20.6871L39.2445 19.793H39.5315V21.5973H39.2077V20.2817L38.5763 21.1188H38.5638L37.908 20.2814V21.597H37.584V19.793Z" fill="black"/>
<path fill-rule="evenodd" clip-rule="evenodd" d="M40.4144 19.8039C40.3161 19.8296 40.2222 19.8699 40.1357 19.9233L40.2217 20.1791C40.2955 20.1426 40.3694 20.1121 40.4432 20.0858C40.517 20.0592 40.6113 20.0471 40.7241 20.0471C40.8142 20.0471 40.8861 20.0614 40.9414 20.0897C40.9967 20.116 41.0376 20.1567 41.0664 20.2054C41.0951 20.2542 41.1136 20.3148 41.1239 20.3857C41.1341 20.4566 41.1382 20.5336 41.1382 20.6169C41.0719 20.5707 40.9964 20.5395 40.9168 20.5255C40.8398 20.5102 40.7616 20.5021 40.6832 20.5012C40.5867 20.5012 40.4965 20.5156 40.4103 20.5397C40.3243 20.564 40.2505 20.6006 40.191 20.6493C40.1303 20.698 40.0813 20.7595 40.0475 20.8296C40.0114 20.9063 39.9932 20.9902 39.9942 21.0749C39.9942 21.2513 40.0456 21.3892 40.1479 21.4867C40.2505 21.5839 40.3857 21.6323 40.5538 21.6323C40.7056 21.6323 40.8266 21.606 40.9187 21.5534C41.0111 21.5005 41.0849 21.4399 41.1382 21.3709V21.6041H41.4416V20.4973C41.4416 20.2619 41.3904 20.0797 41.2859 19.9518C41.1833 19.8242 41.0008 19.7593 40.7426 19.7593C40.6276 19.7593 40.5189 19.7754 40.4144 19.8039ZM40.956 21.2657C40.8822 21.3183 40.7857 21.3424 40.6668 21.3424C40.5623 21.3424 40.4802 21.3161 40.423 21.2654C40.3655 21.2128 40.3367 21.1439 40.3367 21.0586C40.3367 21.0082 40.3469 20.9655 40.3696 20.927C40.3923 20.8886 40.423 20.8581 40.4578 20.8337C40.4959 20.8083 40.5382 20.7897 40.5828 20.7789C40.63 20.7667 40.6771 20.7606 40.7263 20.7606C40.8863 20.7606 41.0235 20.7991 41.1363 20.8803V21.1093C41.0831 21.1688 41.0225 21.2213 40.956 21.2654V21.2657ZM44.3017 19.1632C44.3673 19.133 44.4286 19.0823 44.4861 19.0073L44.3098 18.7539C44.2647 18.8148 44.2135 18.8572 44.156 18.8796C44.0951 18.9034 44.0319 18.9211 43.9675 18.9322L43.9061 18.9432C43.8527 18.9525 43.7955 18.9627 43.7338 18.9729C43.635 18.9912 43.5386 19.0211 43.4468 19.0621C43.3011 19.1249 43.1845 19.21 43.0963 19.3174C43.0081 19.4248 42.9384 19.5464 42.8911 19.6804C42.8433 19.8162 42.811 19.9569 42.7949 20.0999C42.7783 20.2461 42.7703 20.3857 42.7703 20.5195C42.7703 20.6919 42.7927 20.8479 42.8378 20.9877C42.8831 21.1278 42.9464 21.2452 43.0305 21.3405C43.1145 21.4379 43.2152 21.511 43.334 21.5636C43.4529 21.6163 43.5862 21.6426 43.7358 21.6426C43.8732 21.6426 44.0004 21.6163 44.1151 21.5675C44.2257 21.5207 44.3261 21.4526 44.4104 21.367C44.4922 21.2837 44.558 21.1843 44.6031 21.073C44.6501 20.9614 44.6728 20.8418 44.6728 20.7161C44.6728 20.5804 44.6523 20.4568 44.6133 20.3472C44.5774 20.2427 44.5202 20.1468 44.4452 20.0656C44.3701 19.9857 44.2784 19.9234 44.1765 19.8829C44.0643 19.8387 43.9446 19.8167 43.824 19.8181C43.746 19.8181 43.6702 19.8283 43.5964 19.8485C43.5246 19.8688 43.4557 19.8981 43.3913 19.9357C43.3288 19.9715 43.2716 20.0158 43.2212 20.0673C43.172 20.1182 43.1311 20.175 43.1024 20.2398H43.0941C43.1004 20.1567 43.1106 20.0717 43.1289 19.9845C43.1474 19.8972 43.174 19.8139 43.2091 19.735C43.2439 19.6561 43.289 19.5849 43.3443 19.5201C43.4036 19.4547 43.4763 19.4028 43.5574 19.3681C43.6467 19.3256 43.7411 19.2949 43.8383 19.277L43.9027 19.2653C43.9667 19.2536 44.0279 19.2424 44.0864 19.2302C44.1643 19.2141 44.2359 19.1936 44.3017 19.1634V19.1632ZM43.1618 20.8966C43.1301 20.7942 43.1149 20.6875 43.1167 20.5804C43.1305 20.5189 43.1555 20.4605 43.1905 20.4081C43.2254 20.3533 43.2705 20.3048 43.3238 20.2619C43.4442 20.1676 43.5931 20.1169 43.746 20.1182C43.9368 20.1182 44.0803 20.1769 44.1806 20.2926C44.2813 20.4101 44.3305 20.556 44.3305 20.7324C44.3305 20.8196 44.3139 20.8988 44.2854 20.9716C44.2577 21.0435 44.2158 21.109 44.1623 21.1644C44.1088 21.2198 44.0447 21.2638 43.9738 21.2939C43.9 21.3263 43.8198 21.3427 43.7297 21.3427C43.6395 21.3427 43.5574 21.3244 43.4817 21.2879C43.4064 21.252 43.3398 21.2001 43.2868 21.1358C43.2312 21.0642 43.1889 20.9831 43.1618 20.8966ZM47.1575 19.7978H46.8335V21.6021H47.1575V19.7978ZM45.14 19.7978H45.4641V20.3392H45.7635C45.9048 20.3392 46.0195 20.3574 46.1119 20.3918C46.2042 20.4264 46.278 20.4729 46.3333 20.5297C46.3886 20.5865 46.4276 20.6535 46.4503 20.7282C46.4727 20.8033 46.4851 20.8803 46.4851 20.9614C46.4851 21.0425 46.4727 21.1198 46.4461 21.1967C46.4215 21.2737 46.3784 21.3405 46.3209 21.4014C46.2636 21.4623 46.1857 21.511 46.0872 21.5476C45.9888 21.5839 45.8699 21.6041 45.7264 21.6041H45.1381V19.7978H45.14ZM45.4641 20.641V21.302H45.6999C45.8619 21.302 45.9766 21.2737 46.0422 21.2167C46.108 21.16 46.1406 21.0791 46.1406 20.9716C46.1406 20.862 46.1058 20.7792 46.0402 20.7222C45.9725 20.6654 45.8597 20.6369 45.704 20.6369H45.4641V20.641Z" fill="black"/>
<path d="M49.3002 21.3449C49.2223 21.4443 49.1197 21.5193 48.9967 21.57C48.8704 21.6214 48.7354 21.6475 48.5991 21.647C48.4635 21.6488 48.3288 21.6262 48.2012 21.5802C48.0867 21.5387 47.982 21.4738 47.8938 21.3897C47.8067 21.3055 47.7382 21.2039 47.6928 21.0915C47.644 20.9684 47.6197 20.8369 47.6212 20.7044C47.6212 20.5729 47.6436 20.451 47.6908 20.3356C47.7359 20.2198 47.8014 20.1207 47.8835 20.0374C47.9656 19.9523 48.0638 19.8875 48.1747 19.8369C48.2915 19.7854 48.4181 19.7598 48.5457 19.7618C48.6912 19.7618 48.8266 19.7801 48.9496 19.8164C49.0727 19.8529 49.1772 19.9139 49.2632 19.9991L49.1136 20.2525C49.0413 20.1869 48.956 20.1371 48.8634 20.1063C48.7753 20.0779 48.6833 20.0636 48.5908 20.0639C48.5089 20.0639 48.431 20.08 48.355 20.1105C48.2804 20.1405 48.2122 20.1846 48.1542 20.2403C48.0953 20.298 48.0485 20.3669 48.0168 20.443C47.982 20.5219 47.9656 20.6092 47.9656 20.7064C47.9656 20.8058 47.9839 20.8949 48.0188 20.9719C48.0536 21.0511 48.1009 21.1181 48.1603 21.1746C48.2197 21.2316 48.2894 21.274 48.3693 21.3025C48.4495 21.3308 48.5335 21.3471 48.6237 21.3471C48.7343 21.3471 48.8327 21.3247 48.9209 21.2821C49.0061 21.2409 49.0827 21.1838 49.1465 21.114L49.3002 21.3449ZM49.4661 19.8003H51.1289V20.1207H50.4604V21.6044H50.1366V20.1207H49.4683V19.8003H49.4661Z" fill="black"/>
<path fill-rule="evenodd" clip-rule="evenodd" d="M51.8025 19.7908H51.4785V22.3976H51.8025V21.5118C51.8681 21.5544 51.946 21.5849 52.0362 21.6051C52.1263 21.6253 52.2206 21.6353 52.3171 21.6353C52.4606 21.6353 52.5897 21.609 52.7066 21.5605C52.8188 21.5125 52.9204 21.443 53.0058 21.3559C53.0899 21.2684 53.1534 21.1671 53.1985 21.0474C53.2436 20.9281 53.2662 20.8002 53.2662 20.6645C53.2662 20.5305 53.2458 20.4069 53.2068 20.2954C53.1701 20.1894 53.113 20.0916 53.0387 20.0076C52.9658 19.9257 52.8754 19.8613 52.7741 19.8191C52.6635 19.7715 52.544 19.748 52.4235 19.7501C52.2966 19.7501 52.1777 19.7745 52.0649 19.8232C51.9521 19.8719 51.8639 19.9304 51.8025 20.0035V19.7908ZM52.0281 20.1253C52.1205 20.0766 52.2208 20.0522 52.3295 20.0522C52.4238 20.0522 52.5078 20.0664 52.5838 20.0968C52.6577 20.1273 52.7191 20.1699 52.7705 20.2267C52.8216 20.2834 52.8606 20.3485 52.8852 20.4252C52.9118 20.5022 52.9242 20.5855 52.9242 20.6766C52.9242 20.7741 52.9076 20.8611 52.8791 20.9422C52.8522 21.0191 52.8096 21.0896 52.7539 21.149C52.6979 21.2078 52.6302 21.254 52.5551 21.2847C52.4714 21.3198 52.3813 21.337 52.2905 21.3354C52.2026 21.3354 52.1205 21.3254 52.0425 21.3052C51.9572 21.282 51.8762 21.2449 51.8028 21.1956V20.3015C51.86 20.2328 51.936 20.174 52.0281 20.1253ZM55.751 19.7906H55.427V21.5949H55.751V19.7906ZM53.7316 19.7906H54.0556V20.3319H54.3548C54.4963 20.3319 54.611 20.3502 54.7034 20.3845C54.7957 20.4191 54.8695 20.4657 54.9248 20.5224C54.9801 20.5792 55.0191 20.6462 55.0415 20.721C55.0642 20.796 55.0764 20.873 55.0764 20.9541C55.0764 21.0353 55.0642 21.1125 55.0376 21.1895C55.013 21.2665 54.9699 21.3332 54.9124 21.3941C54.8552 21.455 54.7772 21.5037 54.6788 21.5403C54.5804 21.5766 54.4615 21.5968 54.318 21.5968H53.7296V19.7906H53.7316ZM54.0578 20.6338V21.2947H54.2936C54.4554 21.2947 54.5704 21.2665 54.6359 21.2094C54.7014 21.1527 54.7343 21.0718 54.7343 20.9644C54.7343 20.8547 54.6995 20.7719 54.6339 20.7149C54.5662 20.6581 54.4534 20.6296 54.2977 20.6296H54.0578V20.6338Z" fill="black"/>
<path d="M57.3071 20.6627L58 21.5973H57.6024L57.0672 20.8674L56.5239 21.5973H56.1467L56.8355 20.6788L56.1877 19.793H56.5855L57.0796 20.4741L57.5817 19.793H57.9591L57.3071 20.6627ZM28.8476 23.8272H27.8533V25.3313H27.5293V23.5273H29.1713V25.3313H28.8476V23.8272ZM31.0102 23.8474H30.3707L30.35 24.1514C30.3276 24.4089 30.2969 24.6158 30.2538 24.7736C30.2106 24.932 30.1573 25.0536 30.0959 25.1386C30.0345 25.2239 29.9626 25.2826 29.8805 25.3111C29.7958 25.3418 29.7063 25.3569 29.6162 25.3557L29.5916 25.0433C29.6264 25.0453 29.6674 25.0372 29.7124 25.017C29.7577 24.9968 29.8028 24.9522 29.8457 24.8855C29.8888 24.8163 29.9278 24.7191 29.9626 24.5934C29.9975 24.4657 30.0201 24.2996 30.0323 24.0905L30.0652 23.529H31.3342V25.3333H31.0102V23.8471V23.8474Z" fill="black"/>
<path fill-rule="evenodd" clip-rule="evenodd" d="M32.2055 23.5329C32.1007 23.5611 32.0064 23.6016 31.9265 23.6522L32.0127 23.9078C32.0866 23.8713 32.1604 23.8408 32.234 23.8145C32.3078 23.7882 32.4023 23.776 32.5149 23.776C32.6052 23.776 32.6769 23.7901 32.7322 23.8184C32.7877 23.8449 32.8286 23.8854 32.8574 23.9341C32.8859 23.9828 32.9044 24.0437 32.9146 24.1144C32.9249 24.1855 32.929 24.2625 32.929 24.3456C32.8627 24.2995 32.7871 24.2684 32.7076 24.2545C32.6306 24.2392 32.5524 24.231 32.4739 24.2301C32.3777 24.2301 32.2873 24.2443 32.2013 24.2686C32.1151 24.293 32.0413 24.3295 31.9818 24.3782C31.9211 24.4269 31.8721 24.4885 31.8383 24.5585C31.8023 24.6352 31.7841 24.7191 31.7852 24.8039C31.7852 24.98 31.8364 25.1181 31.9389 25.2153C32.0413 25.3125 32.1767 25.3613 32.3448 25.3613C32.4966 25.3613 32.6174 25.335 32.7098 25.2821C32.8018 25.2295 32.8757 25.1686 32.929 25.0996V25.3328H33.2326V24.226C33.2326 23.9909 33.1812 23.8084 33.0767 23.6807C32.9741 23.5528 32.7916 23.4883 32.5334 23.4883C32.4226 23.4884 32.3123 23.5033 32.2055 23.5326V23.5329ZM32.7487 24.9941C32.6752 25.047 32.5787 25.0714 32.4598 25.0714C32.3531 25.0714 32.2732 25.045 32.2159 24.9941C32.1584 24.9415 32.1297 24.8726 32.1297 24.7875C32.1297 24.7369 32.1399 24.6942 32.1626 24.6557C32.185 24.6172 32.2159 24.5868 32.2508 24.5624C32.2856 24.5381 32.3285 24.5198 32.3757 24.5076C32.4226 24.4955 32.4708 24.4894 32.5192 24.4896C32.6791 24.4896 32.8165 24.5281 32.9293 24.609V24.838C32.876 24.8975 32.8154 24.95 32.7487 24.9941Z" fill="black"/>
<path d="M33.5547 23.5312H35.2174V23.8514H34.5489V25.3353H34.2251V23.8516H33.5569V23.5312H33.5547Z" fill="black"/>
<path fill-rule="evenodd" clip-rule="evenodd" d="M36.7279 25.3136C36.8509 25.2751 36.9555 25.2162 37.0456 25.1353L36.9472 24.8839C36.8877 24.9367 36.8078 24.9813 36.7113 25.0178C36.6151 25.0544 36.5065 25.0724 36.3876 25.0724C36.2092 25.0724 36.0616 25.0259 35.9447 24.9306C35.8277 24.8354 35.7644 24.7016 35.75 24.5311H37.1523C37.1664 24.4685 37.1728 24.3973 37.1728 24.3143C37.1728 24.1907 37.1501 24.0792 37.105 23.9778C37.0631 23.8794 37.0017 23.7905 36.9245 23.7164C36.8466 23.6427 36.7546 23.5855 36.6541 23.5481C36.5488 23.5072 36.4369 23.4866 36.324 23.4871C36.1722 23.4871 36.0389 23.5135 35.9222 23.5622C35.8119 23.6085 35.712 23.6768 35.6289 23.7629C35.5481 23.8486 35.486 23.95 35.4464 24.0609C35.4032 24.179 35.3817 24.304 35.3829 24.4297C35.3829 24.5718 35.4075 24.7014 35.4525 24.8171C35.4978 24.9326 35.5653 25.032 35.6494 25.1151C35.7334 25.1981 35.836 25.261 35.9571 25.3056C36.0866 25.3516 36.2233 25.3743 36.3608 25.3726C36.4818 25.3726 36.6049 25.3521 36.7279 25.3136ZM35.9059 23.923C36.0063 23.8319 36.1396 23.7873 36.3077 23.7873C36.4677 23.7873 36.5927 23.8319 36.685 23.915C36.7771 24.0002 36.8263 24.1177 36.8346 24.2677H35.7276C35.7432 24.135 35.8066 24.0124 35.9059 23.923ZM37.3306 23.5278H37.7407L38.3658 24.3976L37.6975 25.3319H37.2999L38.0009 24.3973L37.3306 23.5276V23.5278ZM38.4457 23.5278H38.7697V25.3319H38.4457V23.5278ZM39.9279 25.3319L39.2146 24.3973L39.8809 23.5276H39.4789L38.8496 24.3973L39.5262 25.3319H39.9279ZM41.4082 25.3136C41.5312 25.2751 41.6357 25.2162 41.7259 25.1353L41.6275 24.8839C41.568 24.9367 41.4881 24.9813 41.3919 25.0178C41.2954 25.0544 41.1867 25.0724 41.0679 25.0724C40.8895 25.0724 40.7419 25.0259 40.6249 24.9306C40.5082 24.8354 40.4447 24.7016 40.4303 24.5311H41.8326C41.847 24.4685 41.8531 24.3973 41.8531 24.3143C41.8531 24.1907 41.8306 24.0792 41.7853 23.9778C41.7434 23.8795 41.682 23.7906 41.605 23.7164C41.527 23.6427 41.435 23.5854 41.3344 23.5481C41.2291 23.5072 41.1172 23.4866 41.0043 23.4871C40.8527 23.4871 40.7195 23.5135 40.6025 23.5622C40.4922 23.6086 40.3925 23.6769 40.3094 23.7629C40.2285 23.8484 40.1664 23.9499 40.127 24.0609C40.0837 24.179 40.0621 24.304 40.0634 24.4297C40.0634 24.5718 40.088 24.7014 40.1331 24.8171C40.1781 24.9326 40.2459 25.032 40.3299 25.1151C40.414 25.1981 40.5163 25.261 40.6374 25.3056C40.767 25.3516 40.9037 25.3743 41.0413 25.3726C41.1659 25.3716 41.2896 25.3518 41.4082 25.3136ZM40.5862 23.923C40.6868 23.8319 40.8201 23.7873 40.9882 23.7873C41.1461 23.7873 41.273 23.8319 41.3653 23.915C41.4577 24.0002 41.5069 24.1177 41.5149 24.2677H40.4079C40.4235 24.135 40.4869 24.0124 40.5862 23.923ZM43.1674 22.9217C42.9767 22.9217 42.8721 22.8162 42.8558 22.6055H42.5503C42.5503 22.6864 42.5647 22.7594 42.5912 22.8284C42.618 22.8973 42.657 22.956 42.7082 23.0048C42.7593 23.0535 42.8251 23.092 42.9009 23.1222C42.9767 23.1527 43.0648 23.1668 43.1652 23.1668C43.2576 23.1668 43.3397 23.1527 43.4135 23.1222C43.4873 23.0939 43.5487 23.0535 43.602 23.0048C43.6532 22.956 43.6944 22.8973 43.7229 22.8284C43.7516 22.7594 43.766 22.6864 43.766 22.6055H43.4627C43.4483 22.8162 43.3477 22.9217 43.1674 22.9217ZM42.2918 23.5276V25.3319H42.6158L43.6695 23.9878V25.3319H43.9935V23.5276H43.6695L42.6158 24.8717V23.5276H42.2918Z" fill="black"/>
</svg>
