<svg xmlns="http://www.w3.org/2000/svg" display="none">

    <symbol id="close" viewBox="0 0 512.021 512.021">
        <g>
            <path d="M301.258,256.01L502.645,54.645c12.501-12.501,12.501-32.769,0-45.269c-12.501-12.501-32.769-12.501-45.269,0l0,0   L256.01,210.762L54.645,9.376c-12.501-12.501-32.769-12.501-45.269,0s-12.501,32.769,0,45.269L210.762,256.01L9.376,457.376   c-12.501,12.501-12.501,32.769,0,45.269s32.769,12.501,45.269,0L256.01,301.258l201.365,201.387   c12.501,12.501,32.769,12.501,45.269,0c12.501-12.501,12.501-32.769,0-45.269L301.258,256.01z"/>
        </g>
    </symbol>

    <symbol id="search" viewBox="0 0 512 512">
        <path class="st0" d="M505.7,475.6L378.4,348.2c74.7-91.4,61.2-226-30.2-300.7s-226-61.2-300.7,30.2s-61.2,226,30.2,300.7
	c78.7,64.3,191.8,64.3,270.5,0l127.3,127.3c8.5,8.2,22,8,30.2-0.5C513.7,497,513.7,483.9,505.7,475.6z M213.3,384
	c-94.3,0-170.7-76.4-170.7-170.7S119.1,42.7,213.3,42.7S384,119.1,384,213.3C383.9,307.5,307.5,383.9,213.3,384z"/>
    </symbol>

    <symbol id="prev" viewBox="0 0 12.3 23.2">
        <path class="st0" d="M11.8,0.7c0.7,0.8,0.7,1.9,0,2.6l-7.5,8.3l7.5,8.3c0.7,0.8,0.7,1.9,0,2.6c-0.8,0.9-2.2,0.9-2.9,0l-8.2-9.1
	c-1-1.1-1-2.7,0-3.7l8.2-9.1C9.7-0.2,11.1-0.2,11.8,0.7z"/>
    </symbol>

    <symbol id="next" viewBox="0 0 12.3 23.2">
        <path class="st0" d="M3.5,0.7l8.2,9.1c1,1.1,1,2.7,0,3.7l-8.2,9.1c-0.8,0.9-2.2,0.9-2.9,0c-0.7-0.8-0.7-1.9,0-2.6L8,11.6L0.5,3.3
	c-0.7-0.8-0.7-1.9,0-2.6C1.3-0.2,2.7-0.2,3.5,0.7z"/>
    </symbol>

</svg>