<?xml version="1.0" encoding="utf-8"?>
<!-- Generator: Adobe Illustrator 23.1.0, SVG Export Plug-In . SVG Version: 6.00 Build 0)  -->
<svg version="1.1" id="Слой_1" xmlns="http://www.w3.org/2000/svg" xmlns:xlink="http://www.w3.org/1999/xlink" x="0px" y="0px"
	 viewBox="0 0 512 426" style="enable-background:new 0 0 512 426;" xml:space="preserve">
<style type="text/css">
	.st0{fill-rule:evenodd;clip-rule:evenodd;fill:#666666;}
</style>
<path class="st0" d="M476.9,2.3C442.8,14.8,23.4,176,17.2,178.9c-20.5,9.7-22.9,22.6-5.8,31.3c1.7,0.8,30,9.9,63.1,20.2l60.1,18.7
	L271,163.6c75-46.9,138-85.9,139.8-86.5c4.6-1.6,8.6-1.5,10.5,0.4c1.3,1.3,1.4,2,0.3,3.9c-0.7,1.3-50.5,46.5-110.7,100.6
	S201.2,280.7,201,281.2c-0.2,0.5-2.2,27.5-4.5,60l-4.2,59l4.5-0.6c2.5-0.3,6.4-1.6,8.8-2.9c2.3-1.2,18-15.4,34.8-31.6
	c16.8-16.1,31.2-29.5,31.9-29.8c0.7-0.3,27.5,18.7,59.6,42.2c32.1,23.5,60.8,43.9,63.9,45.3c8.1,3.7,17.1,4.1,23,0.9
	c5.3-2.8,10.4-9.8,12.6-17.1c0.8-2.8,19.2-87.5,40.7-188.2C508,50.9,511.3,34.6,511.3,25.9c0-8.2-0.3-10.2-2.5-14.5
	c-1.6-3.1-4.2-6.2-6.8-8C496.1-0.7,486.3-1.1,476.9,2.3z"/>
</svg>
