<svg width="50" height="32" viewBox="0 0 50 32" fill="none" xmlns="http://www.w3.org/2000/svg">
<path d="M21.2954 23.7697H17.3145L19.8044 8.28125H23.7851L21.2954 23.7697Z" fill="#00579F"/>
<path d="M35.7268 8.6594C34.9416 8.34602 33.6962 8 32.1562 8C28.225 8 25.4566 10.109 25.4396 13.1241C25.407 15.3487 27.4217 16.5843 28.9285 17.326C30.4687 18.084 30.9922 18.5787 30.9922 19.2543C30.9766 20.2919 29.7477 20.7702 28.6016 20.7702C27.0122 20.7702 26.1606 20.5236 24.8664 19.9463L24.3422 19.6989L23.7852 23.1757C24.7188 23.6036 26.439 23.9834 28.225 24C32.402 24 35.1214 21.9237 35.1536 18.7105C35.1695 16.9474 34.1057 15.5964 31.8121 14.4924C30.4197 13.7837 29.567 13.3059 29.567 12.5808C29.5833 11.9216 30.2882 11.2464 31.86 11.2464C33.1541 11.2134 34.105 11.5263 34.8253 11.8395L35.1854 12.0039L35.7268 8.6594Z" fill="#00579F"/>
<path d="M41.0166 18.2827C41.3444 17.3929 42.6059 13.9491 42.6059 13.9491C42.5894 13.9822 42.9331 13.0429 43.1297 12.4663L43.4079 13.8009C43.4079 13.8009 44.1617 17.5083 44.3255 18.2827C43.7033 18.2827 41.8029 18.2827 41.0166 18.2827ZM45.9305 8.28125H42.8512C41.9017 8.28125 41.1803 8.56113 40.7706 9.56633L34.8574 23.7695H39.0345C39.0345 23.7695 39.7222 21.8578 39.87 21.4461C40.3282 21.4461 44.3916 21.4461 44.9811 21.4461C45.0954 21.9899 45.4561 23.7695 45.4561 23.7695H49.1421L45.9305 8.28125Z" fill="#00579F"/>
<path d="M13.9887 8.28125L10.0901 18.8429L9.66404 16.7008C8.94326 14.2292 6.68276 11.5439 4.16016 10.2087L7.73116 23.7532H11.9409L18.1982 8.28125H13.9887Z" fill="#00579F"/>
<path d="M6.47043 8.28125H0.0655247L0 8.5942C4.99622 9.8795 8.30513 12.9777 9.66461 16.7015L8.27226 9.58319C8.04303 8.59398 7.33858 8.31388 6.47043 8.28125Z" fill="#FAA61A"/>
</svg>
