<?xml version="1.0" encoding="utf-8"?>
<!-- Generator: Adobe Illustrator 23.1.0, SVG Export Plug-In . SVG Version: 6.00 Build 0)  -->
<svg version="1.1" id="Слой_1" xmlns="http://www.w3.org/2000/svg" xmlns:xlink="http://www.w3.org/1999/xlink" x="0px" y="0px"
	 viewBox="0 0 512 292" style="enable-background:new 0 0 512 292;" xml:space="preserve">
<style type="text/css">
	.st0{fill-rule:evenodd;clip-rule:evenodd;fill:#666666;}
</style>
<path class="st0" d="M214.4,0.3c-9.7,0.7-22.1,2.6-27,4.1c-8.5,2.6-19,12-17.1,15.2c0.4,0.6,2.3,1.4,4.4,1.7
	c9.2,1.7,16.9,6.9,20.4,13.7c5.9,11.6,8.6,48,5.4,73.7c-2.1,17-3,20.9-6.1,27.1c-8.4,16.5-27.8,3-48.9-34
	c-7.6-13.3-28.8-55.7-33.5-66.9c-5.7-13.7-7.5-16.2-14.1-19.5l-5.5-2.8l-41.5,0.3C13.4,13.2,9,13.4,6.1,15c-4.6,2.5-6.6,6-6,10.5
	c1.1,7.9,25,57.9,45.1,94.2c24.3,43.9,56.3,89.5,79.6,113.3c20.2,20.6,51.3,40.9,76.4,49.6c16.6,5.8,25.8,7.2,52.2,7.8
	c26.1,0.6,33.6-0.2,39.2-3.9c4.6-3.1,6-7.4,6.8-20.7c0.8-13.2,3.4-24.5,6.9-30.5c3.1-5.3,9.9-11.5,12.8-11.6
	c10.1-0.5,15.8,3.7,37,27.5c19.9,22.3,27.2,28.8,38.2,34.1c5,2.4,11,4.8,13.5,5.3c6,1.4,87-0.2,92.2-1.8c5.2-1.6,10.8-7,10.9-10.7
	c0.3-9.7-0.8-13.7-6.3-22.3c-8.7-13.6-19.9-26.3-45.4-51.6c-28.4-28.1-30.3-30.7-30.4-40.1c0-7.9,3.6-13.9,28.5-46.9
	c35.1-46.5,49.2-69,53.1-84.8c2.3-9.3,1-13.8-4.9-16.9c-5.6-2.9-14.1-3.1-66.6-2.1l-41.4,0.8l-3.1,3.6c-1.7,2-5.1,8.5-7.5,14.5
	c-12.5,31.1-37,74-53.5,93.7c-6.5,7.7-16.5,15.6-19.9,15.6c-4.7,0-8.6-3-11.5-9l-2.7-5.5l0.3-51.9c0.2-46.2,0.1-52.5-1.4-57
	c-3.4-10.4-7.7-13.5-22.1-16.1C267.7,0.6,226.9-0.6,214.4,0.3z"/>
</svg>
