<svg id="SvgjsSvg1021" xmlns="http://www.w3.org/2000/svg" version="1.1" xmlns:xlink="http://www.w3.org/1999/xlink" xmlns:svgjs="http://svgjs.com/svgjs" width="49" height="48" viewBox="0 0 49 48"><title>Ellipse 5 copy 2</title><desc>Created with Avocode.</desc><defs id="SvgjsDefs1022"></defs><path id="SvgjsPath1023" d="M687.5 382C700.738 382 711.469 392.745 711.469 406C711.469 419.255 700.738 430 687.5 430C674.262 430 663.531 419.255 663.531 406C663.531 392.745 674.262 382 687.5 382Z " fill="#587ea3" fill-opacity="1" transform="matrix(1,0,0,1,-663,-382)"></path><path id="SvgjsPath1024" d="M698.343 411.683C697.79 411.005 697.161 410.396 696.5519999999999 409.81C696.3359999999999 409.599 696.1119999999999 409.383 695.8969999999999 409.169C695.2779999999999 408.54999999999995 695.2549999999999 408.317 695.7449999999999 407.615C696.084 407.13100000000003 696.4439999999998 406.648 696.7909999999999 406.178C697.107 405.755 697.433 405.314 697.7449999999999 404.874L697.81 404.78400000000005C698.4069999999999 403.939 699.025 403.06700000000006 699.353 402.01400000000007C699.439 401.73600000000005 699.5279999999999 401.3280000000001 699.323 400.98500000000007C699.119 400.64200000000005 698.721 400.5400000000001 698.4399999999999 400.4920000000001C698.3009999999999 400.4670000000001 698.1629999999999 400.46400000000006 698.035 400.46400000000006L694.1229999999999 400.46100000000007H694.0909999999999C693.4989999999999 400.46100000000007 693.1009999999999 400.74500000000006 692.8719999999998 401.3330000000001C692.6539999999999 401.8910000000001 692.4149999999998 402.4870000000001 692.1419999999998 403.0540000000001C691.5979999999998 404.1810000000001 690.9069999999998 405.4800000000001 689.9069999999998 406.5630000000001L689.8649999999998 406.6090000000001C689.7469999999997 406.7390000000001 689.6129999999998 406.8870000000001 689.5149999999998 406.8870000000001C689.4999999999998 406.8870000000001 689.4839999999998 406.8840000000001 689.4659999999998 406.8780000000001C689.2579999999998 406.7940000000001 689.1199999999998 406.2830000000001 689.1259999999997 406.0440000000001C689.1259999999997 406.0420000000001 689.1259999999997 406.0390000000001 689.1259999999997 406.0350000000001L689.1229999999997 401.4170000000001C689.1229999999997 401.4030000000001 689.1219999999997 401.3870000000001 689.1199999999997 401.3710000000001C689.0209999999996 400.6210000000001 688.7999999999996 400.1520000000001 687.9669999999996 399.9860000000001C687.9449999999996 399.9810000000001 687.9229999999997 399.9790000000001 687.8999999999996 399.9790000000001H683.8329999999996C683.1699999999996 399.9790000000001 682.8049999999996 400.2540000000001 682.4619999999996 400.6660000000001C682.3689999999997 400.77800000000013 682.1759999999997 401.0050000000001 682.2719999999996 401.2840000000001C682.3689999999996 401.5670000000001 682.6829999999995 401.6260000000001 682.7859999999996 401.64600000000013C683.2949999999996 401.74200000000013 683.5819999999997 402.06100000000015 683.6629999999996 402.6180000000001C683.8049999999996 403.58100000000013 683.8219999999995 404.6110000000001 683.7179999999995 405.85500000000013C683.6889999999995 406.2020000000001 683.6309999999995 406.4690000000001 683.5359999999995 406.6970000000001C683.5139999999994 406.7520000000001 683.4359999999995 406.9260000000001 683.3559999999995 406.9260000000001C683.3309999999996 406.9260000000001 683.2579999999996 406.9170000000001 683.1239999999996 406.8230000000001C682.8089999999995 406.6000000000001 682.5779999999995 406.2860000000001 682.3089999999995 405.8980000000001C681.3929999999995 404.5760000000001 680.6249999999995 403.1190000000001 679.9589999999995 401.44700000000006C679.7129999999995 400.83000000000004 679.2519999999995 400.48500000000007 678.6609999999995 400.4750000000001C678.0119999999995 400.46400000000006 677.4229999999994 400.4600000000001 676.8619999999995 400.4600000000001C676.2489999999995 400.4600000000001 675.6799999999995 400.46600000000007 675.1249999999995 400.47800000000007C674.6499999999995 400.48600000000005 674.3209999999996 400.63300000000004 674.1479999999996 400.91100000000006C673.9749999999996 401.1890000000001 673.9859999999995 401.55500000000006 674.1809999999996 401.9990000000001C675.7469999999996 405.5520000000001 677.1659999999996 408.13400000000007 678.7829999999996 410.37500000000006C679.9159999999996 411.94300000000004 681.0519999999996 413.03000000000003 682.3589999999996 413.78900000000004C683.7359999999995 414.59200000000004 685.2789999999995 414.98400000000004 687.0759999999996 414.98400000000004C687.2789999999995 414.98400000000004 687.4899999999996 414.98 687.7019999999995 414.96900000000005C688.7469999999995 414.91800000000006 689.1339999999996 414.53200000000004 689.1829999999995 413.494C689.2059999999996 412.96200000000005 689.2629999999996 412.406 689.5189999999996 411.93300000000005C689.6799999999995 411.63300000000004 689.8299999999996 411.63300000000004 689.8789999999996 411.63300000000004C689.9739999999996 411.63300000000004 690.0929999999996 411.67800000000005 690.2189999999996 411.76200000000006C690.4459999999996 411.91300000000007 690.6409999999996 412.11500000000007 690.8009999999996 412.29400000000004C690.9509999999996 412.46200000000005 691.0999999999996 412.63200000000006 691.2489999999996 412.802C691.5699999999996 413.168 691.9019999999996 413.55100000000004 692.2489999999996 413.90900000000005C693.0089999999996 414.69800000000004 693.8449999999996 415.04600000000005 694.8059999999996 414.97H698.3929999999996C698.3999999999995 414.97 698.4079999999996 414.96900000000005 698.4149999999996 414.96900000000005C698.7729999999996 414.9440000000001 699.0819999999997 414.74300000000005 699.2649999999996 414.41300000000007C699.4899999999997 414.0060000000001 699.4859999999996 413.48600000000005 699.2519999999996 413.02600000000007C698.9879999999996 412.50000000000006 698.6439999999997 412.0520000000001 698.3429999999996 411.68300000000005Z " fill="#ffffff" fill-opacity="1" transform="matrix(1,0,0,1,-663,-382)"></path></svg>