<svg xmlns="http://www.w3.org/2000/svg" width="40" height="40" viewBox="0 0 40 40">
  <defs>
    <style>
      .cls-1 {
        fill: #f92828;
      }

      .cls-2 {
        fill: #fff;
        fill-rule: evenodd;
      }
    </style>
  </defs>
  <circle id="Эллипс_4_копия_2" data-name="Эллипс 4 копия 2" class="cls-1" cx="20" cy="20" r="20"/>
  <path id="youtube" class="cls-2" d="M30.614,19.434A2.637,2.637,0,0,0,29.76,18a2.749,2.749,0,0,0-1.522-.681q-2.731-.291-8.238-0.29t-8.224.29a2.781,2.781,0,0,0-2.39,2.118A24.589,24.589,0,0,0,9,24.512a24.088,24.088,0,0,0,.386,5.079,2.728,2.728,0,0,0,2.375,2.1A81.274,81.274,0,0,0,20,32a81.26,81.26,0,0,0,8.238-.305,2.62,2.62,0,0,0,1.514-.668,2.737,2.737,0,0,0,.861-1.435A24.6,24.6,0,0,0,31,24.512,24.113,24.113,0,0,0,30.614,19.434ZM15.28,20.9H13.691v8.255H12.207V20.9H10.648V19.537H15.28V20.9Zm4.008,8.255H17.966V28.371a2.185,2.185,0,0,1-1.514.886,0.8,0.8,0,0,1-.861-0.537,3.519,3.519,0,0,1-.119-1.059V21.988h1.321V27.27a3.939,3.939,0,0,0,.015.508,0.3,0.3,0,0,0,.312.3,1.182,1.182,0,0,0,.846-0.608V21.988h1.321v7.167Zm5.047-2.147a5.237,5.237,0,0,1-.133,1.451,1.024,1.024,0,0,1-1.054.8,1.852,1.852,0,0,1-1.381-.8v0.7H20.446V19.537h1.321v3.148a1.8,1.8,0,0,1,1.381-.783,1.027,1.027,0,0,1,1.054.813,5.059,5.059,0,0,1,.133,1.436v2.858Zm5.017-1.189H26.695V27.08q0,1,.683,1a0.563,0.563,0,0,0,.594-0.522A7.045,7.045,0,0,0,28,26.674h1.351v0.189a6.262,6.262,0,0,1-.03.841,1.736,1.736,0,0,1-.312.783,1.822,1.822,0,0,1-1.6.769,1.922,1.922,0,0,1-1.6-.74,2.681,2.681,0,0,1-.43-1.683v-2.51a2.751,2.751,0,0,1,.415-1.683,2.059,2.059,0,0,1,3.162,0,2.827,2.827,0,0,1,.4,1.683v1.495h0Zm-6.917-2.743a0.963,0.963,0,0,0-.668.32v4.367a0.961,0.961,0,0,0,.668.319q0.579,0,.579-0.971V24.048Q23.013,23.076,22.434,23.076Zm4.928,0q-0.668,0-.668.986V24.73h1.336V24.062Q28.031,23.076,27.363,23.076ZM14.419,11.788V15.72H15.9V11.788L17.7,6H16.185L15.176,9.815,14.122,6H12.549q0.416,1.219.965,2.713A24.176,24.176,0,0,1,14.419,11.788Zm5.269,4.033a1.842,1.842,0,0,0,1.573-.74,2.809,2.809,0,0,0,.416-1.712V10.831a2.782,2.782,0,0,0-.416-1.7,2.027,2.027,0,0,0-3.132,0,2.782,2.782,0,0,0-.416,1.7V13.37a2.849,2.849,0,0,0,.416,1.712A1.851,1.851,0,0,0,19.688,15.821ZM19.05,10.57q0-1,.638-1t0.638,1v3.046q0,1.016-.638,1.016T19.05,13.616V10.57Zm4.72,5.252a2.148,2.148,0,0,0,1.529-.9v0.8H26.65V8.48H25.3v5.528a1.183,1.183,0,0,1-.846.624,0.307,0.307,0,0,1-.312-0.319,3.669,3.669,0,0,1-.015-0.508V8.48H22.776V14.2a3.639,3.639,0,0,0,.119,1.088A0.826,0.826,0,0,0,23.77,15.821Z"/>
</svg>
